<svg width="24" height="24" viewBox="0 0 24 24" fill="none" xmlns="http://www.w3.org/2000/svg">
<path d="M15.6806 8.7688C15.7029 8.79477 15.7159 8.81889 15.7224 8.83512C15.7465 8.8968 15.7488 8.94456 15.7567 8.99094C15.7729 9.08184 15.7905 9.09529 15.7794 9.16532C15.7585 9.30027 15.7335 9.28728 15.6927 9.36659C15.65 9.44821 15.624 9.54003 15.6166 9.56693C15.6157 9.57111 15.6185 9.57435 15.6231 9.57389C15.638 9.5725 15.6686 9.57621 15.6695 9.62212C15.6709 9.68287 15.6009 9.80206 15.5818 9.83545C15.5619 9.86884 15.5174 9.93887 15.4798 9.9602C15.4149 9.9987 15.3949 9.97597 15.3852 9.99545C15.3755 10.0149 15.311 10.1369 15.3013 10.1703C15.2887 10.2125 15.2832 10.2635 15.2804 10.3011C15.2804 10.308 15.2836 10.3131 15.2892 10.3154C15.42 10.3665 15.7604 10.487 15.8425 10.6262L14.6914 11.0004C14.8523 10.9809 15.029 10.9591 15.1853 10.9415C15.4 10.9174 15.7465 10.878 15.8587 10.8798C15.9686 10.8808 16.1054 10.9091 16.1458 10.9142C16.2807 10.9318 16.4004 10.9373 16.5469 10.9666C16.6925 10.9958 16.7329 11.0468 16.7607 11.0663C16.7672 11.0704 16.7955 11.0941 16.7955 11.0941C16.9736 11.0816 17.2486 11.0635 17.3066 11.0589C17.3363 11.057 17.397 11.0538 17.4091 11.0514C17.9633 10.9809 18.2666 10.7161 18.5314 10.5557C18.8235 10.3762 19.2636 10.2315 19.5785 10.2227C19.9857 10.2116 20.2784 10.2807 20.4731 10.4583C20.6679 10.6359 20.7444 10.8701 20.6656 11.224C20.59 11.5653 20.4806 11.7225 20.2297 11.8792C19.9774 12.0355 19.7 12.0866 19.3712 12.0559C18.8245 12.0059 18.3357 11.6645 18.1423 11.5532C17.9762 11.4577 17.7481 11.3561 17.4911 11.3339C17.4666 11.3311 17.3924 11.3292 17.3404 11.3339C17.3228 11.3348 17.1141 11.3496 16.9824 11.3589C16.9977 11.409 17.0005 11.4475 16.9996 11.4572C16.9958 11.5235 16.9587 11.5555 16.9175 11.5509C16.8804 11.5453 16.7862 11.4753 16.7593 11.4173C16.7565 11.4118 16.7482 11.409 16.7477 11.4187C16.7477 11.4294 16.7491 11.4401 16.7477 11.4498C16.7454 11.4679 16.7343 11.524 16.6953 11.5351C16.6624 11.5444 16.6114 11.5361 16.5748 11.5064C16.5636 11.498 16.5479 11.5022 16.5432 11.5152C16.5288 11.5555 16.521 11.5801 16.444 11.5648C16.3916 11.5597 16.4022 11.5806 16.3684 11.5862C16.2868 11.6019 16.2473 11.5588 16.1824 11.5282C16.117 11.4985 16.1384 11.4368 16.0739 11.4252C16.0614 11.4238 16.04 11.4197 16.0275 11.4178C16.0595 11.5305 16.1003 11.6668 16.13 11.8862C16.1309 11.8932 16.1268 11.8987 16.1203 11.8992L16.0549 11.9071C16.0484 11.908 16.0437 11.914 16.0447 11.9196C16.0614 12.0049 16.1022 12.1654 16.1119 12.2804C16.1277 12.4896 16.1249 12.5512 16.111 12.6551C16.1101 12.6616 16.1166 12.6686 16.1235 12.6672C16.1439 12.6625 16.1806 12.6519 16.2 12.637C16.201 12.5907 16.2195 12.5206 16.2237 12.516C16.2302 12.5067 16.2381 12.4984 16.245 12.49C16.2506 12.484 16.2543 12.4766 16.2571 12.4692L16.2738 12.4093C16.2766 12.4001 16.2798 12.3917 16.2849 12.3834L16.3753 12.2206C16.3753 12.2206 16.3953 12.1756 16.4328 12.1863C16.4328 12.1863 16.4922 12.2187 16.4903 12.2809C16.489 12.343 16.4472 12.4186 16.4472 12.4186L16.4862 12.4798C16.4862 12.4798 16.5548 12.5025 16.6225 12.4539C16.6225 12.4539 16.6411 12.4418 16.68 12.4103C16.6633 12.3648 16.7028 12.3068 16.8127 12.3277C16.8507 12.3435 16.9578 12.4297 16.8238 12.5169C16.8187 12.5206 16.8219 12.5285 16.828 12.5285C16.9745 12.5197 16.956 12.6964 16.8567 12.7488C16.8474 12.7544 16.8456 12.7655 16.8512 12.7729C16.8665 12.7947 16.8887 12.8327 16.8845 12.8675C16.8845 12.8675 16.8855 12.9148 16.7431 12.9631C16.7431 12.9631 16.699 12.9807 16.7167 13.0131C16.7338 13.0192 16.7528 13.0261 16.7751 13.0322C16.7751 13.0322 16.904 13.0618 16.879 13.1333C16.879 13.1333 16.8581 13.1926 16.7352 13.1532C16.7352 13.1532 16.661 13.1578 16.6156 13.1495C16.5938 13.1569 16.4964 13.1875 16.3832 13.207C16.3568 13.2116 16.335 13.2265 16.3174 13.2469C16.3164 13.2469 16.316 13.2469 16.316 13.2478C16.2371 13.3382 15.996 13.463 15.8879 13.4639C15.7683 13.4662 15.7534 13.373 15.6658 13.2812C15.497 13.104 15.4678 12.8828 15.4422 12.6635C15.4409 12.6477 15.4191 12.6477 15.4177 12.6635C15.3875 12.9204 15.3722 13.1532 15.2294 13.2803C15.1431 13.3582 15.0068 13.418 14.7846 13.4709C13.9466 13.6694 13.0432 14.1846 13.1462 14.3019C13.1865 14.3483 13.2811 14.2556 13.4467 14.1795C14.0723 13.8915 14.8816 13.834 15.1427 13.8549C15.1617 13.8572 15.1765 13.8716 15.1784 13.8906C15.1811 13.9221 15.1914 13.9787 15.2183 14.0761C15.241 14.1563 15.2674 14.3001 15.3527 14.3808C15.5086 14.5259 15.4872 14.5797 15.4506 14.7759C15.4265 14.9034 15.6013 15.0101 15.606 15.0147H17.41L17.6878 13.6763H19.5192C21.3914 13.6763 22.2229 12.8216 22.5397 11.1855C22.6881 10.424 22.683 8.7688 20.2371 8.7688H15.6806ZM8.76176 8.7688L9.09103 10.3525H11.3662L11.1158 11.5681H12.8294L9.33033 12.2025L10.9855 12.1988L10.4058 15.0143H12.1936C12.2186 14.9865 12.2479 14.9558 12.2822 14.9201C12.3615 14.839 12.2993 14.6349 12.3146 14.5565C12.3346 14.4531 12.5122 14.3984 12.5405 14.2982C12.5781 14.161 12.3068 14.1837 12.4361 14.039C12.5178 13.9486 12.6351 13.9806 12.6272 13.8906C12.6142 13.7459 12.7557 13.6476 12.815 13.6026C13.0738 13.406 13.6554 13.0957 14.0078 12.9932C14.3765 12.8856 13.8682 12.8954 13.4467 13.0498C13.065 13.1898 13.942 12.6398 14.6358 12.4659C15.1301 12.3425 14.2726 12.3175 13.4824 12.6649C13.2315 12.7752 13.0919 12.8434 12.9913 12.9083C12.9871 12.9111 12.982 12.9069 12.9843 12.9023C13.0233 12.8225 13.1049 12.6848 13.0812 12.5443C13.0655 12.4511 13.0757 12.3481 13.1132 12.2776C13.1434 12.2206 13.1253 12.0675 13.1587 11.9892C13.161 11.9836 13.1684 11.9803 13.1749 11.9822L13.5988 12.1158L15.2581 11.55L13.6781 11.7842L13.1299 11.3162C13.0529 11.2337 12.9723 10.9105 13.0529 10.7903C13.1689 10.6183 13.2867 10.487 13.3377 10.4421C13.4124 10.3767 13.6405 10.3493 13.7532 10.2918C13.8339 10.251 13.9049 10.2547 13.9693 10.2589C14.0046 10.2603 14.0375 10.263 14.0686 10.257C14.1562 10.2394 14.3107 10.1851 14.3566 10.168C14.3594 10.1666 14.3608 10.1647 14.3608 10.1619C14.3608 10.1452 14.3575 10.0812 14.3515 10.053C14.3264 9.93701 14.313 9.82803 14.3199 9.74919C14.3301 9.65087 14.4159 9.56415 14.4201 9.49876C14.4243 9.43337 14.3765 9.36659 14.4127 9.30259C14.4466 9.24323 14.4554 9.19685 14.4943 9.07117C14.4841 8.99697 14.4373 8.971 14.4711 8.89494C14.4888 8.85459 14.5203 8.79755 14.5337 8.76926H8.76176V8.7688ZM6.47031 8.76926L4.66118 11.5667L7.06161 11.5681L6.66695 11.4238L7.00967 10.852L7.17198 11.6585L7.36537 12.5582L1.20801 13.674L3.29725 13.6759L2.43188 15.0143H4.51648L5.31786 13.6759H7.59262L7.87041 15.0143H9.7556L8.45058 8.76926H6.47031V8.76926ZM18.363 10.9146C18.1084 11.0524 17.9224 11.1099 17.8116 11.134C17.7991 11.1372 17.7791 11.1521 17.7791 11.1743C17.7791 11.1966 17.7926 11.21 17.8037 11.2124C17.9118 11.2388 18.0769 11.2898 18.287 11.3979C18.3245 11.4173 18.3709 11.3877 18.3709 11.339C18.3728 11.1818 18.4015 11.1094 18.4349 10.9837C18.4456 10.9429 18.4201 10.9091 18.3876 10.9091C18.3793 10.9091 18.3709 10.9109 18.3626 10.9156" fill="#5AA8DC"/>
</svg>
