<svg width="45" height="45" viewBox="0 0 45 45" fill="none" xmlns="http://www.w3.org/2000/svg">
<path fill-rule="evenodd" clip-rule="evenodd" d="M19.1594 5.04894C18.0505 5.2754 16.8708 5.77212 16.8708 5.77212C17.4549 4.97655 18.6405 4.00192 18.6405 4.00192C18.3143 3.38899 18.0255 2.4815 18.0255 2.4815C18.0255 2.4815 19.3966 2.55675 20.4698 2.90512C20.4698 2.90512 22.2931 1.90572 24.1824 1.875C24.1824 1.875 22.8053 2.67009 22.2203 3.41042C22.3755 3.49209 23.4768 3.82166 24.3346 4.32719C24.3346 4.32719 22.7839 4.37101 21.3609 4.56579C21.3609 4.56579 20.8599 5.27254 20.4362 6.88106C20.436 6.88106 19.7064 6.0774 19.1594 5.04894Z" fill="black"/>
<path fill-rule="evenodd" clip-rule="evenodd" d="M26.5263 6.38078C25.5873 5.33637 24.3346 4.32719 24.3346 4.32719C25.4871 4.34362 27.1973 5.02371 27.1973 5.02371C27.5316 4.39173 27.7657 3.52211 27.7657 3.52211C27.7657 3.52211 28.42 4.62962 28.7172 5.85429C28.7172 5.85429 30.0757 6.66772 31.1008 8.02907C31.1008 8.02907 30.0312 7.80595 29.2437 7.80976C29.2413 7.98549 29.5326 9.43042 29.4692 10.4239C29.4692 10.4239 28.5972 9.0068 27.779 7.82642C27.779 7.82642 26.4639 7.85024 25.082 8.2279C25.0823 8.2279 25.8562 7.33399 26.5263 6.38078ZM28.031 13.1885C28.7234 12.021 29.4695 10.4241 29.4695 10.4241C29.6983 11.4921 29.7188 12.8546 29.7188 12.8546C30.4058 12.7099 31.6218 12.1265 31.6218 12.1265C31.6218 12.1265 31.0801 13.5695 29.8657 14.676C29.8657 14.676 29.9886 15.5407 30.0028 16.6815C30.0028 16.6815 29.1439 16.2989 28.4317 15.8709C28.28 15.9593 27.4192 16.5448 25.965 16.8458C25.965 16.8458 26.5808 15.8838 27.0901 14.9442C27.0901 14.9442 26.0762 14.2762 25.273 13.1816C25.273 13.1813 26.8346 13.3785 28.031 13.1885Z" fill="black"/>
<path fill-rule="evenodd" clip-rule="evenodd" d="M23.1325 10.8061C24.1948 12.1219 25.2728 13.1816 25.2728 13.1816C23.5116 12.9199 22.0817 12.426 22.0817 12.426C21.3664 13.5728 20.5858 14.9061 20.5858 14.9061C20.5858 14.9061 20.1493 13.4597 20.0755 11.8181C20.0755 11.8181 19.1909 11.5085 17.5604 10.8666C17.5604 10.8666 18.6851 10.1684 20.0462 9.78762C19.9667 9.6307 20.1753 7.67904 20.4362 6.88133C20.4362 6.88133 21.2299 8.16791 21.8762 9.11373C21.8762 9.11373 23.1411 8.68464 25.0825 8.22792C25.0823 8.22792 24.02 9.57593 23.1325 10.8061ZM13.4626 15.7833C13.3556 15.5821 13.2559 15.3771 13.1637 15.1687C13.1823 14.4708 13.2447 13.5719 13.4233 12.8747C13.4233 12.8747 12.9115 12.5196 12.3824 12.0581C12.3765 11.9779 12.3696 11.8969 12.3651 11.8157C12.6689 11.7024 13.314 11.4745 13.8774 11.344C13.9419 11.1799 14.2927 10.0496 14.9706 9.2697C14.9706 9.2697 15.0163 10.0381 15.2006 11.0611C15.2006 11.0611 16.2708 10.8187 17.5602 10.8661C17.5602 10.8661 16.3653 11.8071 15.6128 12.7632C15.8857 13.8655 16.4348 14.9235 16.4348 14.9235C15.6142 14.4591 14.7463 13.844 14.7463 13.844C14.4415 14.2065 13.8288 15.1842 13.4626 15.7833ZM20.2888 20.7884C20.156 20.7645 20.0238 20.7373 19.8924 20.7068C19.4445 20.2265 18.7613 19.4423 18.2396 18.6182C18.2396 18.6182 16.315 18.4629 14.9589 17.869C14.9589 17.869 16.0805 17.6583 17.3121 17.0232C17.2325 16.8663 16.763 16.0005 16.4346 14.9239C16.4346 14.9239 17.6109 15.8743 18.4824 16.4305C18.4824 16.4305 19.59 15.7933 20.5855 14.9061C20.5855 14.9061 20.3331 16.1324 20.1934 17.5331C20.8366 17.9004 21.4851 18.2583 22.1388 18.6068C21.1347 18.753 20.1462 18.7222 20.1462 18.7222C20.1072 19.5 20.2117 20.3174 20.2888 20.7884ZM28.6615 18.2877C28.6615 18.2877 27.3342 18.6384 26.0388 18.687C26.0388 18.687 26.029 17.8033 25.9648 16.8458C25.9648 16.8458 25.2768 17.8221 24.3789 18.7611C23.3185 18.7458 22.1388 18.607 22.1388 18.607C22.5434 19.0187 22.9595 19.4188 23.3868 19.8069C22.5882 20.4858 21.85 20.9394 21.85 20.9394C21.9548 20.9408 22.0614 20.9415 22.1669 20.9401C24.6879 20.8989 26.9663 19.8955 28.6615 18.2877Z" fill="black"/>
<path fill-rule="evenodd" clip-rule="evenodd" d="M12.4817 9.68068C12.4817 9.68068 13.1909 8.79629 14.0186 8.07811C14.0186 8.07811 14.2953 8.58891 14.9706 9.2697C14.9706 9.2697 14.9756 8.43791 15.0723 7.13252C15.8285 6.46387 16.8708 5.77212 16.8708 5.77212C16.0064 5.71712 15.3613 5.75927 15.3613 5.75927C15.5618 4.76867 16.0148 3.70569 16.0148 3.70569C14.1769 5.16301 12.8834 7.2754 12.4817 9.68068ZM31.0422 35.2935C29.8033 35.2935 29.0508 34.2555 29.0508 33.1173C29.0508 31.9345 29.9281 31.0775 31.073 31.0775C32.3417 31.0775 33.1063 32.0847 33.1063 33.1918C33.1063 34.5034 32.1552 35.2935 31.0422 35.2935ZM30.9729 31.6737C30.2019 31.6737 29.9716 32.4076 29.9716 32.9048C29.9716 33.6318 30.2952 34.6955 31.1846 34.6955C31.819 34.6955 32.1859 34.1309 32.1859 33.4528C32.1859 32.7317 31.9064 31.6737 30.9729 31.6737ZM23.4609 34.7029C23.4609 34.9265 23.5037 35.007 23.865 35.0768V35.2315C23.473 35.213 23.2297 35.1944 23.0003 35.1944C22.7696 35.1944 22.5274 35.213 22.2538 35.2315V35.0753C22.4958 35.0325 22.5401 34.9265 22.5401 34.6339V31.593C22.5401 31.4182 22.4653 31.3368 22.2538 31.3306V31.1575H24.0943C25.2454 31.1575 25.6626 31.7049 25.6626 32.4272C25.6626 33.1987 25.0775 33.6718 24.2753 33.6718C23.9707 33.6718 23.5233 33.5156 23.5233 33.3849C23.5233 33.3292 23.5604 33.3292 23.6164 33.3292C23.6723 33.3292 23.7526 33.3478 23.8335 33.3478C24.4865 33.3478 24.7422 32.9808 24.7422 32.4646C24.7422 31.904 24.3934 31.7052 23.8454 31.7052L23.4609 31.7466V34.7029ZM26.8648 31.5547C26.8648 31.3811 26.7905 31.2994 26.5789 31.2937V31.1318C26.8522 31.1504 27.0942 31.1689 27.3249 31.1689C27.5556 31.1689 27.7978 31.1504 28.0709 31.1318V31.2937C27.8602 31.2992 27.785 31.3811 27.785 31.5547V34.8144C27.785 34.9891 27.8602 35.0696 28.0709 35.0768V35.2315C27.798 35.213 27.5552 35.1944 27.3249 35.1944C27.0942 35.1944 26.8525 35.213 26.5789 35.2315V35.0768C26.7905 35.0699 26.8648 34.9894 26.8648 34.8144V31.5547ZM34.3536 31.5518C34.3536 31.3782 34.2783 31.2966 34.0666 31.2908V31.1275C34.3405 31.1456 34.5834 31.1661 34.8136 31.1661C34.9815 31.1661 35.168 31.1661 35.3616 31.1275L37.0782 33.9102H37.0903V31.6392C37.0903 31.3151 36.8853 31.2908 36.7174 31.2908V31.1275C36.9225 31.1456 37.1211 31.1661 37.3146 31.1661C37.5197 31.1661 37.7249 31.1456 37.9247 31.1275V31.2908C37.7125 31.2963 37.6378 31.3782 37.6378 31.5518V35.2315H36.9782L34.9132 32.0193H34.901V34.7241C34.901 35.0482 35.1051 35.0725 35.2739 35.0725V35.2287C35.0689 35.2101 34.8694 35.1901 34.6767 35.1901C34.4717 35.1901 34.2659 35.2101 34.0666 35.2287V35.0725C34.2783 35.067 34.3536 34.9851 34.3536 34.8115V31.5518ZM39.1961 33.8169C39.3234 34.515 39.7816 34.842 40.4676 34.842C40.8443 34.842 41.3894 34.7332 41.3894 34.2526C41.3894 33.8685 40.9922 33.7666 40.6979 33.6764L40.2426 33.5416C39.5897 33.3494 38.9367 33.0742 38.9367 32.3188C38.9367 31.3268 39.8971 31.0258 40.851 31.0258C41.2556 31.0258 41.6709 31.0961 42.0426 31.2308C42.0426 31.6923 42.0681 32.0819 42.0933 32.415H41.9333C41.799 31.8257 41.3194 31.5504 40.7431 31.5504C40.4217 31.5504 39.8849 31.6537 39.8849 32.095C39.8849 32.4479 40.1914 32.5493 40.4543 32.6258L41.1263 32.8191C41.7728 33.0037 42.375 33.2418 42.375 34.0736C42.375 34.9177 41.5235 35.3666 40.4798 35.3666C40.0123 35.3666 39.5194 35.2908 39.0906 35.1358C39.0906 34.6298 39.0715 34.1893 39.0389 33.8169H39.1961ZM6.85463 31.5547C6.85463 31.3811 6.78034 31.2994 6.56793 31.2937V31.1318C6.84177 31.1504 7.08466 31.1689 7.31492 31.1689C7.54519 31.1689 7.78712 31.1504 8.0612 31.1318V31.2937C7.84975 31.2992 7.77593 31.3811 7.77593 31.5547L7.77522 32.7863L9.28039 32.7877V31.5547C9.28039 31.3811 9.20658 31.2994 8.99512 31.2937V31.1318C9.26825 31.1504 9.51137 31.1689 9.74116 31.1689C9.97119 31.1689 10.2143 31.1504 10.4867 31.1318V31.2937C10.276 31.2992 10.2012 31.3811 10.2012 31.5547V34.8144C10.2012 34.9891 10.2757 35.0696 10.4867 35.0753V35.2344C10.2141 35.2163 9.97119 35.1973 9.74045 35.1973C9.51137 35.1973 9.26825 35.2163 8.99441 35.2344V35.0753C9.20658 35.0699 9.28039 34.9894 9.28039 34.8144V33.3837H7.77522V34.8144C7.77522 34.9891 7.84975 35.0696 8.06144 35.0753V35.2344C7.7876 35.2163 7.54543 35.1973 7.31516 35.1973C7.08514 35.1973 6.84201 35.2163 6.56817 35.2344V35.0753C6.77962 35.0699 6.85487 34.9894 6.85487 34.8144V31.5547H6.85463ZM12.7896 33.4513C12.9508 33.0113 13.1499 32.5193 13.2928 32.0221H13.3056C13.4302 32.6501 13.5359 33.0487 13.6664 33.4513H12.7896ZM11.2835 35.2318C11.5016 35.2132 11.7135 35.1946 11.9307 35.1946C12.1422 35.1946 12.3603 35.2132 12.5715 35.2318V35.0756C12.3658 35.0625 12.2788 34.9896 12.2788 34.8765C12.2788 34.8146 12.2974 34.7458 12.3291 34.6584L12.602 33.9245H13.8147L14.014 34.5296C14.0457 34.61 14.0764 34.7532 14.0764 34.8394C14.0764 34.9827 13.9955 35.0327 13.7652 35.0756V35.2318C14.0326 35.2132 14.3 35.1946 14.5679 35.1946C14.8282 35.1946 15.0963 35.2132 15.3578 35.2318V35.0756C15.1716 35.0268 15.0775 34.9453 14.9844 34.6715L13.8397 31.1323C13.6466 31.1508 13.4475 31.1694 13.2547 31.1694C13.0625 31.1694 12.8689 31.1508 12.6703 31.1323V31.2942C12.838 31.2942 12.907 31.3932 12.907 31.4566C12.907 31.518 12.8625 31.6054 12.826 31.6985L11.6066 34.7894C11.5445 34.9527 11.4635 35.0518 11.2828 35.0758V35.2318H11.2835ZM16.6134 32.1398C16.6198 31.9662 16.6313 31.7914 16.6313 31.5435C16.6313 31.3497 16.5882 31.3254 16.3519 31.2937V31.1318C16.5382 31.1504 16.7625 31.1689 16.987 31.1689C17.2106 31.1689 17.4349 31.1504 17.6585 31.1318L18.7472 34.0157L19.7228 31.1318C19.9416 31.1504 20.1531 31.1689 20.3707 31.1689C20.5879 31.1689 20.8058 31.1504 21.0173 31.1318V31.2937C20.8001 31.3123 20.7684 31.3811 20.7684 31.549C20.7684 31.7238 20.7932 32.0033 20.8115 32.214L21.0115 34.8706C21.0239 35.0325 21.2037 35.0565 21.3285 35.0751V35.2313C21.0604 35.2127 20.7875 35.1942 20.5198 35.1942C20.246 35.1942 19.9788 35.2127 19.7226 35.2313V35.0751C20.0281 35.038 20.109 34.982 20.109 34.6965C20.109 34.5462 20.0898 34.2667 20.0719 34.0616L19.9283 32.2083H19.9162L18.8775 35.2658H18.355L17.1666 32.1712H17.1535L17.1042 33.9928C17.0985 34.3169 17.0854 34.4848 17.0854 34.6524C17.0854 34.9637 17.1163 35.0325 17.4899 35.0751V35.2313C17.2411 35.2127 17.0108 35.1942 16.7744 35.1942C16.5451 35.1942 16.3141 35.2127 16.1214 35.2313V35.0751C16.3643 35.0565 16.4639 35.0008 16.4762 34.7398L16.6134 32.1398ZM5.63092 35.0039C5.20515 35.3308 4.59461 35.4616 4.19599 35.4616C2.71296 35.4616 1.875 34.3114 1.875 33.132C1.875 31.9262 2.71296 30.7591 4.32005 30.761C4.88273 30.761 5.28635 30.8679 5.44447 30.9298C5.44447 31.4013 5.46971 31.8559 5.50471 32.306H5.32469C5.21515 31.7311 4.81368 31.4261 4.23694 31.4261C3.45495 31.4261 2.85059 32.0424 2.85059 33.0832C2.85059 33.8673 3.49543 34.7548 4.4022 34.7548C4.78653 34.7548 5.33922 34.5441 5.71045 34.2317L5.63092 35.0039ZM12.365 37.4809C12.365 37.3466 12.3069 37.2832 12.1443 37.2789V37.1468C12.3558 37.1625 12.5427 37.1756 12.7198 37.1756C12.922 37.1756 13.2154 37.1625 13.3542 37.1468V37.2789C13.1092 37.2887 13.0756 37.4092 13.0756 37.5425V39.895H13.9636C14.281 39.895 14.4108 39.7504 14.492 39.3847H14.6482C14.5901 39.6971 14.5372 40.0054 14.5322 40.3181H12.1443V40.1859C12.3069 40.1817 12.365 40.1185 12.365 39.9835V37.4809ZM15.4214 37.4966C15.4214 37.3623 15.3633 37.2989 15.2006 37.2946V37.1639H17.6266C17.6293 37.4101 17.6421 37.656 17.6647 37.9011H17.5333C17.4854 37.6371 17.4183 37.5454 17.1592 37.5454H16.1314V38.4741H16.7701C16.9856 38.4741 17.0194 38.401 17.048 38.229H17.1792C17.162 38.381 17.1524 38.5338 17.1504 38.6867C17.1504 38.8155 17.1647 39.0263 17.1792 39.1425H17.048C17.0192 38.9689 16.9856 38.8975 16.7701 38.8975H16.1314V39.895H17.2116C17.4711 39.895 17.5521 39.8076 17.6342 39.4047H17.7943C17.76 39.708 17.7409 40.0129 17.7369 40.3181H15.2006V40.1859C15.3633 40.1817 15.4214 40.1185 15.4214 39.9835V37.4966ZM18.3703 40.1876C18.5091 40.1676 18.5717 40.0914 18.6198 39.9666L19.5616 37.5873C19.5904 37.5137 19.624 37.4482 19.624 37.4008C19.624 37.352 19.5707 37.2749 19.4411 37.2749V37.1441C19.5945 37.1587 19.7438 37.173 19.8926 37.173C20.0417 37.173 20.195 37.1584 20.3443 37.1441L21.2278 39.8766C21.3004 40.0859 21.3718 40.1493 21.5159 40.1878V40.3186C21.3137 40.3041 21.108 40.2898 20.906 40.2898C20.6996 40.2898 20.4931 40.3043 20.2867 40.3186V40.1878C20.4646 40.1533 20.5267 40.1147 20.5267 40.0059C20.5267 39.9385 20.5024 39.8278 20.4786 39.7664L20.3248 39.3018H19.3885L19.177 39.8664C19.1527 39.9323 19.1382 39.9854 19.1382 40.0343C19.1382 40.1188 19.2056 40.1776 19.364 40.1878V40.3186C19.2006 40.3041 19.033 40.2898 18.8694 40.2898C18.7008 40.2898 18.5384 40.3043 18.3698 40.3186V40.1876H18.3703ZM20.2093 38.9375C20.109 38.6262 20.0267 38.3198 19.9305 37.8352H19.9212C19.8109 38.2178 19.6569 38.5979 19.5321 38.9375H20.2093ZM24.085 39.1942C24.085 39.002 23.9981 38.9932 23.7826 38.9891V38.8272C23.9793 38.8429 24.1764 38.8574 24.3779 38.8574C24.5946 38.8574 24.8058 38.8429 25.0215 38.8272V38.9789C24.8532 38.9837 24.7672 39.0263 24.7672 39.243V40.3183H24.4881L24.3779 39.9957C24.0755 40.2793 23.7578 40.3798 23.4318 40.3798C22.5286 40.3798 21.9524 39.6356 21.9524 38.7715C21.9524 37.7292 22.6491 37.0982 23.6864 37.0982C24.0181 37.0982 24.3753 37.1601 24.6334 37.3218C24.6334 37.5571 24.6432 37.8283 24.6627 38.159H24.5241C24.4622 37.7321 24.0562 37.5213 23.658 37.5213C22.9896 37.5213 22.6636 38.0316 22.6636 38.651C22.6636 39.2473 22.9999 39.9192 23.5566 39.9192C23.8981 39.9192 24.085 39.7606 24.085 39.5397V39.1942ZM25.9874 37.4809C25.9874 37.3466 25.9293 37.2832 25.7669 37.2789V37.1468C25.9501 37.1655 26.1342 37.1751 26.3183 37.1756C26.5686 37.1756 26.7658 37.1625 26.958 37.1468V37.2789C26.7505 37.2887 26.6984 37.3263 26.6984 37.5137V39.3085C26.6984 39.8521 26.9244 39.9564 27.3132 39.9564C27.7021 39.9564 27.9281 39.8421 27.9281 39.3085V37.5137C27.9281 37.3263 27.8754 37.2887 27.668 37.2789V37.1468C27.8612 37.1625 28.0574 37.1756 28.3076 37.1756C28.5091 37.1756 28.7063 37.1625 28.8596 37.1468V37.2789C28.6967 37.2832 28.6386 37.3463 28.6386 37.4809V39.2087C28.6386 40.0974 28.1776 40.3798 27.3132 40.3798C26.4481 40.3798 25.9874 40.0974 25.9874 39.2761V37.4809ZM29.8759 37.4966C29.8759 37.3623 29.8192 37.2989 29.6554 37.2946V37.1639H32.0821C32.0871 37.4275 32.0962 37.6416 32.1197 37.9011H31.9885C31.9407 37.6371 31.8733 37.5454 31.6137 37.5454H30.5877V38.4603H31.2254C31.4411 38.4603 31.4751 38.3881 31.5044 38.2152H31.6347C31.6181 38.3666 31.6084 38.5187 31.6059 38.671C31.6059 38.8013 31.6211 39.012 31.6347 39.1282H31.5044C31.4751 38.9546 31.4411 38.8832 31.2254 38.8832H30.5877V39.8952H31.6666C31.9262 39.8952 32.0081 39.8078 32.0897 39.4049H32.2493C32.2149 39.7082 32.1956 40.0131 32.1917 40.3183H29.6552V40.1862C29.819 40.1819 29.8757 40.1188 29.8757 39.9838V37.4966H29.8759ZM17.5652 29.9926C18.6217 28.7825 20.1755 28.0183 21.909 28.0183C23.6902 28.0183 25.2835 28.8267 26.3417 30.0969L26.6212 29.8345C25.4944 28.4946 23.8052 27.6445 21.9169 27.6445C20.0776 27.6445 18.4279 28.4515 17.3016 29.733L17.5652 29.9926ZM21.4166 26.936L19.7292 27.287L19.3042 25.243L20.9684 24.8975L21.0465 25.2713L19.9528 25.4992L20.0417 25.9281L21.0854 25.7104L21.1632 26.0857L20.1193 26.3022L20.2217 26.7941L21.3385 26.5615L21.4166 26.936ZM24.6362 25.6171L23.6297 25.4049L23.5345 25.8593L24.54 26.0728L24.4612 26.4472L23.4559 26.2336L23.2787 27.0737L22.7084 26.9518L23.1387 24.9106L24.7158 25.243L24.6362 25.6171ZM27.0692 29.1106L26.5686 28.6377L26.6477 28.1888L25.7888 27.5921L25.4087 27.8316L24.8403 27.5135L26.8682 26.3053L27.4225 26.6894L27.0692 29.1106ZM26.897 26.8787L26.1305 27.3613L26.7394 27.7845L26.897 26.8787ZM17.7954 28.2736C17.4214 28.5703 16.787 28.8127 16.3231 28.2676L15.653 27.4092L16.101 27.0553L16.7582 27.8995C16.9953 28.179 17.2937 28.1245 17.5314 27.9381C17.7685 27.7521 17.8905 27.4735 17.6742 27.1773L17.0161 26.3341L17.464 25.9816L18.1343 26.8401C18.5343 27.389 18.2865 27.8833 17.7954 28.2736Z" fill="black"/>
<path fill-rule="evenodd" clip-rule="evenodd" d="M29.1235 27.0722C27.3249 25.1813 24.7846 24.0014 21.9693 24.0014C19.1201 24.0014 16.5524 25.2087 14.7513 27.1394L14.4467 26.8301C16.3389 24.8489 19.0065 23.6144 21.9626 23.6144C24.8951 23.6144 27.5428 24.8301 29.4321 26.7827L29.1235 27.0722ZM33.0477 41.9106C32.9451 41.9109 32.8435 41.8909 32.7486 41.8518C32.6538 41.8128 32.5675 41.7554 32.4949 41.6829C32.4222 41.6105 32.3646 41.5244 32.3252 41.4297C32.2858 41.335 32.2655 41.2334 32.2655 41.1308C32.2661 40.9236 32.3487 40.7251 32.4953 40.5786C32.6419 40.4322 32.8405 40.3498 33.0477 40.3495V40.4243C32.8609 40.425 32.6819 40.4997 32.5501 40.6322C32.4183 40.7646 32.3444 40.9439 32.3445 41.1308C32.3439 41.318 32.4176 41.4977 32.5495 41.6306C32.6813 41.7634 32.8606 41.8384 33.0477 41.8392V41.9106Z" fill="black"/>
<path fill-rule="evenodd" clip-rule="evenodd" d="M32.7258 40.6648H33.041C33.1615 40.6648 33.2318 40.6819 33.2913 40.7281C33.3197 40.7495 33.3428 40.7772 33.3587 40.809C33.3746 40.8408 33.3829 40.8759 33.383 40.9115C33.383 41.0208 33.3044 41.1068 33.178 41.1325C33.2399 41.151 33.2677 41.167 33.2942 41.1984C33.3273 41.2384 33.3416 41.2803 33.3663 41.4106L33.3804 41.4808C33.3897 41.5325 33.3925 41.5413 33.4101 41.5711H33.3161C33.297 41.5311 33.2927 41.5154 33.282 41.4539C33.2489 41.2675 33.2449 41.2544 33.1987 41.2103C33.163 41.1758 33.1142 41.1644 33.0108 41.1644H32.8122V41.5713H32.7258V40.6648ZM33.0439 41.0937C33.1987 41.0937 33.2927 41.0248 33.2927 40.9113C33.2927 40.7922 33.2015 40.7293 33.0291 40.7293H32.811V41.0934H33.0439V41.0937Z" fill="black"/>
<path fill-rule="evenodd" clip-rule="evenodd" d="M33.0477 41.9106C33.4797 41.9106 33.8319 41.5637 33.8319 41.1308C33.8319 40.6979 33.4797 40.3495 33.0477 40.3495V40.4243C33.4356 40.4243 33.7476 40.7405 33.75 41.1308C33.75 41.5232 33.4356 41.8392 33.0477 41.8392V41.9106Z" fill="black"/>
</svg>
