<svg width="24" height="24" viewBox="0 0 24 24" fill="none" xmlns="http://www.w3.org/2000/svg">
<path d="M1.19995 14.6798H4.25407L6.95654 12.1054C6.95654 12.1054 7.59379 11.3606 8.62861 11.3606H16.9338L19.0127 9.30625H8.65681C8.65681 9.30625 6.87115 9.23092 5.79403 10.2134C4.71691 11.1958 1.19995 14.6798 1.19995 14.6798Z" fill="white"/>
<path d="M4.80351 14.6798H7.63085L8.41795 13.9039C8.41795 13.9039 8.81028 13.5193 9.39638 13.5193H14.7465L16.6369 11.6361H9.0282C9.0282 11.6361 8.01634 11.593 7.40608 12.1497C6.79582 12.7064 4.80351 14.6798 4.80351 14.6798Z" fill="white"/>
<path d="M17.4385 14.6753H14.0932L19.455 9.2998H22.8L17.4385 14.6753Z" fill="white"/>
<path d="M19.02 14.6975V14.1537H18.8186V14.0433H19.3624V14.1537H19.1609V14.6975H19.02Z" fill="white"/>
<path d="M19.4473 14.6975V14.0433H19.654L19.7781 14.4888L19.8989 14.0433H20.1063V14.6975H19.9779V14.1823L19.8445 14.6975H19.7116L19.5762 14.1835V14.6975H19.4473Z" fill="white"/>
</svg>
