<svg width="24" height="24" viewBox="0 0 24 24" fill="none" xmlns="http://www.w3.org/2000/svg">
<path d="M2.69436 17.549C1.69984 17.549 0.898193 16.7201 0.898193 15.6919V7.18566C0.898193 6.15743 1.69984 5.32861 2.69436 5.32861H21.102C22.0965 5.32861 22.8982 6.15743 22.8982 7.18566V15.6981C22.8982 16.7264 22.0965 17.5552 21.102 17.5552H2.69436V17.549Z" fill="white"/>
<path d="M21.8646 6.35143C21.6416 6.12086 21.3342 5.98999 21.0208 5.98999H15.8734L18.8329 11.1L19.1041 11.1374L19.2608 11.3679V11.5923L19.4537 11.6297L19.6225 11.8727V12.0846L19.8153 12.122L20.0082 12.3463V12.8262C20.0082 12.8262 20.4241 13.225 20.7978 13.3745C21.057 13.4805 21.0931 13.9105 21.2378 14.1473C21.4427 14.4713 21.714 14.6147 21.6537 14.8016C21.5211 15.3001 21.0208 16.1414 20.5627 16.1913C20.5627 16.1913 19.4115 16.1913 18.7364 16.1913V17.0014H21.0208C21.6838 17.0014 22.2203 16.4468 22.2203 15.7613V7.2301C22.2142 6.89982 22.0877 6.582 21.8646 6.35143Z" fill="#EE3536"/>
<path d="M14.2005 5.94556H2.69416C2.37471 5.94556 2.07334 6.07642 1.85032 6.30699C1.62731 6.53757 1.50073 6.85538 1.50073 7.17943V15.6919C1.50073 16.0222 1.62731 16.3338 1.85032 16.5706C2.07334 16.8012 2.38073 16.932 2.69416 16.932H10.1681C9.98128 16.608 9.77032 16.2403 9.70402 16.1281H8.81197C8.81197 13.8411 9.56539 12.5698 10.4574 12.3268C10.584 12.3019 10.5237 11.6725 10.367 11.4855C10.367 11.4855 9.93909 11.498 9.84868 11.4731C9.73416 11.4357 9.81251 11.3235 9.81251 11.3235L10.2284 10.3888L10.1742 10.1333H8.63114C8.60703 10.1333 9.90292 9.21096 9.90292 9.21096C9.96923 6.78683 12.3742 6.59988 13.8268 7.59696C14.6826 8.18897 14.755 9.35429 14.6827 10.1706C14.6706 10.2143 14.4596 10.1831 14.4596 10.1831C14.4596 10.1831 14.315 11.068 14.6947 11.068H16.3884C17.0755 11.0431 17.7446 11.5229 17.7446 11.5229L17.9133 10.9184L14.2005 5.94556ZM3.97197 15.1809C3.51991 15.1872 3.14621 14.8133 3.14018 14.3459C3.13416 13.8785 3.4958 13.4921 3.94786 13.4859H3.97197C4.42402 13.4921 4.79169 13.8785 4.77964 14.3459C4.77361 14.8008 4.41799 15.1747 3.97197 15.1809Z" fill="#003B4D"/>
<path d="M21.9759 18.3157H21.789V18.8454H21.6624V18.3157H21.4756V18.2035H21.9759V18.3157ZM22.8257 18.8391H22.6991V18.3281L22.5183 18.8391H22.3978L22.223 18.3281V18.8391H22.0964V18.1973H22.3134L22.4581 18.6148L22.6087 18.1973H22.8257V18.8391Z" fill="white"/>
</svg>
