<svg width="24" height="24" viewBox="0 0 24 24" fill="none" xmlns="http://www.w3.org/2000/svg">
<g clip-path="url(#clip0_3823_102377)">
<path d="M14.5058 2.08789H9.86949C8.74761 2.08789 7.83813 2.98066 7.83813 4.08195V19.4705C7.83813 20.5718 8.74761 21.4646 9.86949 21.4646H14.5058C15.6277 21.4646 16.5371 20.5718 16.5371 19.4705V4.08195C16.5371 2.98066 15.6277 2.08789 14.5058 2.08789Z" fill="white"/>
<path d="M13.5554 2.64062C13.2713 2.64066 13.063 2.64173 13.0501 2.64348L13.0189 2.64769L13.087 2.67665C13.1767 2.71473 13.2761 2.77359 13.329 2.81993C13.3525 2.84047 13.3906 2.88527 13.4137 2.9195C13.4459 2.96713 13.4625 2.98401 13.4842 2.99142C13.5534 3.01495 13.6054 3.06954 13.6516 3.16736C13.6871 3.24236 13.7001 3.31502 13.7003 3.43946C13.7005 3.61189 13.6606 3.76702 13.5655 3.9636L13.5222 4.05304L13.5534 4.08812C13.6195 4.16248 13.6059 4.23085 13.4878 4.41757C13.4598 4.46186 13.4282 4.51478 13.4176 4.53518C13.3859 4.5961 13.3562 4.62477 13.3079 4.6409L13.2638 4.65563L13.2066 4.76401C13.068 5.02673 12.963 5.16656 12.874 5.20728C12.8573 5.21493 12.8393 5.22663 12.8341 5.2333C12.8183 5.25333 12.8051 5.30677 12.8055 5.34966C12.8061 5.42534 12.8111 5.43033 12.959 5.50203C13.1104 5.57543 13.2248 5.64149 13.2978 5.69771C13.3442 5.73338 13.3479 5.73862 13.3479 5.76851C13.3479 5.79497 13.3519 5.80325 13.3704 5.81453C13.4355 5.85427 13.489 5.88977 13.5412 5.92783C13.5732 5.95111 13.6488 6.00276 13.7093 6.04257C13.8499 6.13513 13.925 6.19519 14.0123 6.28487C14.2865 6.56673 14.4374 6.97954 14.479 7.56135C14.4836 7.62604 14.4874 7.77835 14.4875 7.8998L14.4875 8.12064L14.5158 8.23237C14.5448 8.34726 14.5745 8.49943 14.6189 8.76185C14.6494 8.94261 14.6791 9.08415 14.7019 9.15765C14.7112 9.18756 14.7632 9.30146 14.8174 9.41077C14.9435 9.66483 14.9859 9.76157 15.0359 9.90962C15.0762 10.029 15.1094 10.1738 15.1223 10.2868C15.1548 10.5716 15.2024 10.7987 15.2374 10.8366C15.2427 10.8423 15.2892 10.8579 15.3408 10.8713C15.3923 10.8847 15.4575 10.9062 15.4855 10.9192C15.5336 10.9414 15.538 10.9459 15.5634 10.998L15.5903 11.0533L15.6846 11.1004C15.7364 11.1263 15.7894 11.1574 15.8022 11.1694C15.8324 11.1977 15.8549 11.2417 15.8619 11.2858C15.8649 11.3052 15.8788 11.3374 15.8928 11.3575C15.9485 11.4376 16.0314 11.5906 16.0392 11.6277C16.0403 11.633 16.0422 9.93636 16.0434 7.85743C16.0457 3.70215 16.0491 3.99676 15.9964 3.79469C15.9528 3.62737 15.8786 3.46496 15.7794 3.31963C15.5371 2.96467 15.1678 2.73329 14.7213 2.65682C14.6479 2.64426 14.557 2.6426 13.8604 2.64108C13.7533 2.64084 13.6501 2.64073 13.5554 2.64074L13.5554 2.64062ZM13.4373 7.78037C13.3965 7.78037 13.1042 7.9538 12.9329 8.07967C12.867 8.12809 12.8572 8.13889 12.8303 8.19248C12.7889 8.27506 12.6322 8.66343 12.4681 9.09032L12.3932 9.285L12.3902 9.37625C12.3874 9.46045 12.3883 9.46751 12.4022 9.46758C12.4254 9.46771 12.4951 9.51058 12.5368 9.55036C12.6191 9.62898 12.6695 9.72816 12.7358 9.94202C12.7882 10.1108 12.9145 10.5477 13.0208 10.9275L13.1284 11.3119L13.1622 11.4326L13.1142 11.4781L13.0663 11.5237L13.0854 11.5927C13.0959 11.6306 13.1151 11.6999 13.1281 11.7468C13.2809 12.2988 13.3517 12.7004 13.4219 13.4137C13.4554 13.7541 13.4807 13.8721 13.5608 14.063C13.6383 14.2475 13.7221 14.4113 13.828 14.5853C13.9785 14.8325 14.0639 15.0093 14.1117 15.1724C14.1593 15.3349 14.2204 15.6398 14.2908 16.0661C14.3829 16.6247 14.4153 16.8113 14.4293 16.864C14.4424 16.9131 14.4561 16.937 14.5218 17.0252C14.634 17.1756 14.6603 17.2155 14.7156 17.3193C14.8057 17.4884 14.8284 17.5903 14.8042 17.7168C14.7969 17.7547 14.7761 17.8459 14.7579 17.9196C14.671 18.2707 14.6548 18.4384 14.6918 18.6018C14.6964 18.6219 14.7151 18.7284 14.7334 18.8383C14.7703 19.0598 14.7941 19.1529 14.8259 19.1989C14.8539 19.2393 14.8812 19.3217 14.8809 19.3652C14.8808 19.3843 14.8735 19.4158 14.8645 19.4353C14.8556 19.4547 14.8483 19.4762 14.8483 19.4831C14.8483 19.4899 14.885 19.6054 14.9299 19.7397C14.9748 19.874 15.0209 20.0168 15.0323 20.0569C15.1229 20.3755 15.121 20.6338 15.0267 20.8194C14.962 20.9468 14.8822 21.0323 14.7367 21.1299C14.7235 21.1387 14.7273 21.1395 14.7622 21.1354C14.8167 21.1289 14.9179 21.1035 15.0062 21.0741C15.2344 20.9981 15.4633 20.8496 15.6359 20.6653C15.8571 20.4292 16.0012 20.1152 16.0367 19.7916C16.0427 19.7375 16.0454 18.6048 16.0453 16.182L16.0452 12.6512L16.019 12.7079C15.9854 12.7808 15.9054 12.9139 15.8599 12.9727C15.7292 13.1414 15.5496 13.2853 15.3547 13.3772C14.896 13.5934 14.3621 13.5479 13.9464 13.2572C13.8469 13.1876 13.6957 13.0379 13.6249 12.939C13.3358 12.535 13.2869 12.0115 13.4962 11.5618C13.654 11.2229 13.9694 10.947 14.3235 10.8379C14.3709 10.8233 14.4129 10.8085 14.4169 10.805C14.4263 10.7969 14.4067 10.7488 14.2983 10.5138C14.212 10.3264 14.0984 10.094 13.9119 9.72238C13.8097 9.5187 13.7945 9.47482 13.734 9.20787C13.6762 8.95252 13.5804 8.46525 13.4955 7.99517C13.4552 7.77202 13.4574 7.78022 13.4374 7.78022L13.4373 7.78037Z" fill="#C8102E"/>
<path d="M11.158 2.63757C10.4927 2.63794 9.81532 2.64081 9.7595 2.64582C9.38799 2.67912 9.06933 2.82153 8.80696 3.07145C8.55348 3.31292 8.40644 3.59058 8.34081 3.95171C8.32773 4.02369 8.32667 4.52086 8.32408 11.7835C8.3222 17.0518 8.32402 19.5861 8.32978 19.6879C8.3529 20.0975 8.49827 20.4228 8.78475 20.7064C9.0551 20.9739 9.39522 21.1288 9.77167 21.1557C9.8833 21.1637 14.4796 21.1659 14.4792 21.158C14.4791 21.1547 14.4566 21.1374 14.4293 21.1196C14.3258 21.052 14.2432 20.9402 14.2129 20.8266C14.1761 20.6886 14.1782 20.5323 14.2215 20.1787C14.2593 19.8693 14.2825 19.6235 14.288 19.4726L14.2934 19.3237L14.2491 19.2762C14.1551 19.1755 14.1361 19.1009 14.1791 19.0007C14.191 18.9729 14.2007 18.9415 14.2007 18.9308C14.2007 18.9012 14.1569 18.7618 14.1162 18.6618C14.0688 18.5452 13.9979 18.406 13.8882 18.2142C13.7309 17.939 13.6989 17.8649 13.698 17.7736C13.6975 17.7161 13.7088 17.6871 13.7497 17.641L13.7741 17.6136L13.7506 17.5455C13.7195 17.4555 13.6874 17.3769 13.6224 17.232L13.5687 17.1122L13.4942 17.0684C13.1936 16.8916 12.8285 16.6183 12.4711 16.3011C12.3651 16.207 12.1763 16.0269 12.0197 15.8712C11.9228 15.7745 11.7733 15.6344 11.6877 15.5598C11.5349 15.4268 11.4773 15.3683 11.4515 15.3197C11.4444 15.3063 11.4174 15.2716 11.3916 15.2426C11.0585 14.8695 10.3096 13.7768 10.0595 13.2991C10.0317 13.2461 10.0082 13.2017 10.0072 13.2006C10.0063 13.1995 9.9177 13.1861 9.81039 13.1708C9.70308 13.1555 9.61257 13.14 9.60927 13.1363C9.60597 13.1326 9.58973 13.0846 9.57319 13.0295C9.50818 12.8129 9.42506 12.631 9.18726 12.1846C8.84801 11.5479 8.75986 11.2268 8.80973 10.8097C8.84171 10.5422 8.93164 10.1214 8.9772 10.0262C9.00465 9.96882 9.0682 9.89143 9.16566 9.79665L9.25651 9.70807V9.60949V9.51089L9.03718 9.51069C8.74663 9.51043 8.6634 9.49816 8.60239 9.44648C8.56562 9.41534 8.55881 9.39843 8.52643 9.25761C8.51686 9.21599 8.49605 9.15028 8.48018 9.1116C8.41618 8.95559 8.41216 8.89503 8.45659 8.75623C8.4721 8.70777 8.49081 8.64471 8.49816 8.61609C8.56401 8.35981 8.73023 7.97107 9.05164 7.32163C9.10684 7.21009 9.16413 7.08416 9.17896 7.04178C9.2772 6.76113 9.37022 6.53861 9.46718 6.35231C9.6817 5.94018 9.84632 5.69431 10.016 5.53273C10.1031 5.44979 10.1678 5.40505 10.2681 5.35843C10.4039 5.29529 10.5048 5.27514 10.8347 5.24522L11.056 5.22515L11.0807 5.19739L11.1054 5.16963L11.212 5.16459C11.5651 5.14788 11.6923 5.10391 11.7527 4.97773C11.7826 4.91516 11.7956 4.84784 11.8271 4.59347C11.843 4.46561 11.8568 4.35552 11.8578 4.34883C11.859 4.34131 11.8543 4.33756 11.8456 4.339C11.7705 4.35141 11.7073 4.18612 11.705 3.97165C11.7032 3.79774 11.729 3.75837 11.8504 3.74943L11.9171 3.7444L11.9189 3.68357C11.9229 3.55107 11.9395 3.35846 11.9547 3.2703C11.9895 3.0677 12.0358 2.96841 12.1461 2.86025C12.2263 2.78147 12.3073 2.72907 12.4265 2.67879C12.468 2.66128 12.4908 2.64767 12.4848 2.64398C12.4767 2.63899 11.8232 2.63687 11.1578 2.63725L11.158 2.63757ZM9.30573 17.3926H9.56725H9.82877L9.84169 17.4636C9.8488 17.5027 9.87337 17.6368 9.89628 17.7617C9.91919 17.8866 9.95249 18.0691 9.97029 18.1673C9.98808 18.2654 10.0358 18.5264 10.0764 18.7473C10.117 18.9681 10.1692 19.2537 10.1926 19.382C10.2159 19.5103 10.2363 19.6138 10.2381 19.6121C10.2406 19.6096 10.2284 19.3965 10.2119 19.1569C10.2058 19.069 10.2005 18.979 10.1952 18.8771C10.1926 18.8257 10.1889 18.7619 10.1871 18.7351C10.1853 18.7083 10.1816 18.6189 10.1788 18.5364C10.1761 18.4538 10.1723 18.3681 10.1703 18.3457C10.1684 18.3234 10.1646 18.0999 10.1618 17.8489L10.1567 17.3927H10.3256H10.4946V18.7919V20.1911H10.2546H10.0146L9.97492 19.9781C9.95309 19.861 9.90815 19.621 9.87506 19.4448C9.84197 19.2686 9.79052 18.993 9.76074 18.8324C9.68309 18.4138 9.64365 18.2054 9.62103 18.0942L9.60124 17.9969L9.60509 18.074C9.60722 18.1163 9.61267 18.2587 9.61718 18.3903C9.6217 18.5219 9.6272 18.6734 9.62942 18.7269C9.6323 18.7966 9.63598 20.004 9.63384 20.1769C9.63367 20.1899 9.62032 20.1911 9.46969 20.1911H9.3057V18.7919L9.30573 17.3926ZM10.757 17.3926L11.0583 17.3927C11.224 17.3927 11.3836 17.3964 11.4129 17.4009C11.5901 17.428 11.7159 17.526 11.7729 17.6813C11.8121 17.7881 11.8162 17.8421 11.8127 18.2038C11.81 18.4833 11.8074 18.5396 11.7954 18.581C11.772 18.6621 11.741 18.716 11.6881 18.7676L11.6382 18.8164L11.6838 18.8609C11.7371 18.9129 11.7669 18.9628 11.7923 19.0426C11.81 19.0983 11.8106 19.111 11.8106 19.4408C11.8106 19.8218 11.8098 19.8283 11.7507 19.9478C11.6959 20.0585 11.6005 20.1335 11.4656 20.172C11.4244 20.1837 11.3669 20.1863 11.087 20.1891L10.757 20.1932V18.7931V17.3931V17.3926ZM12.2745 17.3926H12.544H12.8135L12.8183 17.4231C12.8209 17.4398 12.8435 17.6287 12.8685 17.8428C12.8935 18.057 12.9451 18.4968 12.9831 18.8202C13.1294 20.0629 13.1429 20.1781 13.1429 20.1846C13.1429 20.1878 13.0545 20.1911 12.9465 20.1911H12.7501L12.7458 20.1647C12.7435 20.1502 12.7341 20.0434 12.725 19.9275C12.7159 19.8115 12.7062 19.6956 12.7035 19.6699L12.6985 19.6233H12.5314C12.3647 19.6233 12.3643 19.6233 12.3605 19.6415C12.3584 19.6516 12.3489 19.7583 12.3393 19.8788C12.3298 19.9992 12.3198 20.1188 12.3172 20.1444L12.3124 20.1911H12.125H11.9376V20.1668C11.9376 20.1468 11.9937 19.6764 12.0484 19.2379C12.055 19.1844 12.1029 18.7902 12.1548 18.3619C12.2622 17.4755 12.2647 17.4548 12.2704 17.4189L12.2745 17.3926L12.2745 17.3926ZM12.5207 17.7067C12.5195 17.7068 12.5182 17.708 12.5168 17.7095C12.515 17.7115 12.5112 17.7459 12.5084 17.7861C12.5056 17.8262 12.5014 17.8828 12.499 17.9118C12.4967 17.9408 12.4837 18.1105 12.4703 18.289C12.4568 18.4674 12.4325 18.7641 12.4163 18.9482C12.4002 19.1323 12.3887 19.2875 12.3909 19.2929C12.3937 19.3003 12.4307 19.3029 12.5304 19.3029C12.6049 19.3029 12.6681 19.3008 12.6708 19.2982C12.6734 19.2956 12.6646 19.1715 12.6512 19.0224C12.5436 17.8261 12.5328 17.7067 12.5207 17.7067ZM11.1341 17.7481V18.2057C11.1341 18.4573 11.1357 18.6648 11.1376 18.6666C11.1394 18.6685 11.1865 18.6688 11.2421 18.6672C11.3584 18.664 11.387 18.6546 11.4148 18.6103L11.4334 18.5811V18.2121C11.4334 17.8576 11.4327 17.8419 11.417 17.8155C11.3843 17.7606 11.3668 17.7541 11.2442 17.7511L11.1341 17.7479L11.1341 17.7481ZM11.1341 18.9722V19.4031V19.834H11.2308C11.3478 19.834 11.3885 19.8189 11.4165 19.7651C11.4327 19.7339 11.4334 19.7198 11.4334 19.4C11.4334 19.0807 11.4327 19.0663 11.4168 19.0391C11.3898 18.993 11.351 18.9795 11.2346 18.9756L11.1341 18.9732L11.1341 18.9722Z" fill="#1D428A"/>
</g>
<defs>
<clipPath id="clip0_3823_102377">
<rect width="8.8961" height="19.5714" fill="white" transform="translate(7.76624 2)"/>
</clipPath>
</defs>
</svg>
