<svg width="24" height="24" viewBox="0 0 24 24" fill="none" xmlns="http://www.w3.org/2000/svg">
<path d="M4.51392 17.1014L4.55227 3.85753C7.1603 6.12603 11.1381 3.83562 12.1024 2C13.9763 5.33699 18.6335 5.19452 19.6142 3.82466L19.6526 17.5068C19.6361 20.5151 13.8722 19.0795 12.086 22C10.2669 18.8219 4.62898 20.6301 4.51392 17.1014Z" fill="#003B4D"/>
<path d="M5.177 16.7671L5.20988 10.1315L18.9514 10.126L18.9842 17.1178C18.9952 19.8684 13.7134 18.4986 12.0806 21.0684C10.4259 18.2739 5.2044 19.9506 5.177 16.7671Z" fill="white"/>
<path d="M10.3052 9.37565C10.4805 8.5099 10.7326 7.73729 11.0449 7.05236L10.7545 6.89894L10.8586 6.70715C11.5764 6.87702 11.5216 6.97565 11.7352 7.10168L11.5983 7.34277L11.2531 7.18935C10.7983 7.90715 10.6559 8.66332 10.5134 9.42496C12.3873 9.32633 14.9734 7.85236 13.7461 4.59209C13.4666 4.71811 13.2036 4.87154 12.9735 5.09072L13.2146 5.31537L13.0447 5.4688C12.8694 5.2825 12.6776 5.11263 12.3215 5.10715L12.5461 4.95373L12.8365 4.98661C12.979 4.81674 13.2201 4.6414 13.5926 4.47154C10.8367 4.4551 9.56005 6.41127 10.3052 9.37565Z" fill="white"/>
<path d="M6.79316 7.18381L6.16855 6.73998L5.54941 7.18929L5.77406 6.46053L5.1604 6.00573L5.92199 6.00025L6.16307 5.27148L6.40415 5.99477L7.17122 6.00025L6.55756 6.45505L6.79316 7.18381Z" fill="white"/>
<path d="M9.42852 7.18381L8.80391 6.73998L8.1793 7.18929L8.40942 6.46053L7.79028 6.00573L8.55735 6.00025L8.79295 5.27148L9.03951 5.99477L9.80658 6.00025L9.19292 6.45505L9.42852 7.18381Z" fill="white"/>
<path d="M6.79316 9.51218L6.16855 9.06835L5.54941 9.51766L5.77406 8.78342L5.1604 8.3341L5.92199 8.32314L6.16307 7.59985L6.40415 8.32314H7.17122L6.55756 8.78342L6.79316 9.51218Z" fill="white"/>
<path d="M9.42852 9.51218L8.80391 9.06835L8.1793 9.51766L8.40942 8.78342L7.79028 8.3341L8.55735 8.32314L8.79295 7.59985L9.03951 8.32314H9.80658L9.19292 8.78342L9.42852 9.51218Z" fill="white"/>
<path d="M16.0092 7.18381L15.3846 6.73998L14.7655 7.18929L14.9956 6.46053L14.3765 6.00573L15.1435 6.00025L15.3791 5.27148L15.6257 5.99477L16.3873 6.00025L15.7736 6.45505L16.0092 7.18381Z" fill="white"/>
<path d="M18.6447 7.18381L18.0201 6.73998L17.401 7.18929L17.6256 6.46053L17.012 6.00573L17.7736 6.00025L18.0146 5.27148L18.2612 5.99477L19.0228 6.00025L18.4091 6.45505L18.6447 7.18381Z" fill="white"/>
<path d="M16.0092 9.51218L15.3846 9.06835L14.7655 9.51766L14.9956 8.78342L14.3765 8.3341L15.1435 8.32314L15.3791 7.59985L15.6257 8.32314H16.3873L15.7736 8.78342L16.0092 9.51218Z" fill="white"/>
<path d="M18.6447 9.51218L18.0201 9.06835L17.401 9.51766L17.6256 8.78342L17.012 8.3341L17.7736 8.32314L18.0146 7.59985L18.2612 8.32314H19.0228L18.4091 8.78342L18.6447 9.51218Z" fill="white"/>
<path d="M11.0613 6.38376C11.4832 6.51526 11.6914 6.69061 11.8886 6.86595L12.0585 6.62485C11.8503 6.38924 11.5106 6.27965 11.1654 6.17554L11.0613 6.38376Z" fill="#003B4D"/>
<path d="M11.4065 5.95627C11.8284 6.08777 12.0366 6.26312 12.2338 6.43846L12.4037 6.19736C12.1955 5.96175 11.8558 5.85216 11.5106 5.74805L11.4065 5.95627Z" fill="#003B4D"/>
<path d="M11.8723 5.45773C12.2942 5.58924 12.5024 5.76458 12.6997 5.93992L12.8695 5.69883C12.6613 5.46321 12.3216 5.35362 11.9764 5.24951L11.8723 5.45773Z" fill="#003B4D"/>
<path d="M6.00903 10.7729L6.02547 11.7318L6.5405 11.9565L6.57338 16.5976L6.00903 16.8222V17.5455L8.05272 18.0606L8.03629 17.1839L7.64179 16.7729L7.62536 14.3126L9.0006 18.2688L10.0471 18.5921L10.1019 11.9565L10.4416 11.6825V10.7729H8.50201V11.6825L8.94581 11.94L8.96773 14.9811L7.587 10.751L6.00903 10.7729Z" fill="#EE3536"/>
<path d="M10.8421 18.044L10.8586 18.7837L12.853 19.5235V18.6632L12.4201 18.1974V14.8824L13.0557 14.8988L13.368 15.2933L13.883 15.2769L13.8995 13.4522L13.3187 13.4358L13.0776 13.8303L12.4366 13.8468V11.8687L13.231 11.907L13.5214 12.5755L14.294 12.5591L14.3159 10.8057H10.7874L10.8038 11.6988L11.2531 11.9892L11.3024 17.8194L10.8421 18.044Z" fill="#EE3536"/>
<path d="M14.6555 10.7889V11.7149L15.0171 11.9231L15.0719 17.1999L14.6555 17.682L14.6939 18.4766L18.1457 17.4957L18.1128 15.3094L17.269 15.293L17.1485 16.5971L16.3102 16.8766L16.3266 11.9725L16.754 11.6273L16.7376 10.7725L14.6555 10.7889Z" fill="#EE3536"/>
</svg>
