<svg width="25" height="28" viewBox="0 0 25 28" fill="none" xmlns="http://www.w3.org/2000/svg">
<g clip-path="url(#clip0_3823_102405)">
<path fill-rule="evenodd" clip-rule="evenodd" d="M2.9134 16.9893C2.9134 14.8416 3.96537 14.033 4.17575 11.9864C3.8865 13.7804 2.65039 15.2206 2.65039 16.9893C2.65039 17.6715 2.75558 18.2779 2.9134 18.8338C3.67604 21.3099 5.99034 22.6744 8.19946 23.2303C4.80696 22.3965 2.9134 19.6171 2.9134 16.9893ZM22.506 16.9893C22.506 15.8775 22.1904 14.9932 21.8485 14.1847C21.4278 13.2245 20.9807 12.3401 20.9807 11.2537C20.9807 13.8562 22.2694 14.6142 22.2694 16.9894C22.2694 19.6172 20.4021 22.3966 16.9833 23.2304C20.0602 22.4724 22.5061 20.2994 22.5061 16.9894L22.506 16.9893Z" fill="white"/>
<path fill-rule="evenodd" clip-rule="evenodd" d="M21.3749 6.57966C20.6648 6.37753 20.1652 5.87213 19.8495 5.06363L19.1658 3.19385L18.8239 4.3814C19.5076 7.28718 21.9797 7.48931 21.9797 7.48931L22.979 7.03448L21.3748 6.57966H21.3749ZM9.6457 17.1667L8.35704 15.2464L6.91064 16.2824C6.91064 16.2824 7.41035 16.3076 7.41035 16.813V20.4262L8.436 19.6935V17.1414L9.59315 18.8596L10.6714 18.0763V13.5787L9.64579 14.3114V17.1666L9.6457 17.1667ZM13.8009 12.9723L12.6438 13.8061V12.1384L11.0922 13.2502C11.0922 13.2502 11.5919 13.2755 11.5919 13.7808V17.394L12.6439 16.636V14.9937L13.801 14.1599V15.8275L14.8003 15.12V10.5971L13.801 11.3299V12.9722L13.8009 12.9723ZM16.6938 12.5681V9.20755L15.1422 10.3193C15.1422 10.3193 15.6419 10.3446 15.6419 10.8499V14.4631L18.5348 12.3659C18.4822 11.6584 18.5348 11.2289 18.5348 11.2289L16.6938 12.5681Z" fill="#E4E5E6"/>
<path fill-rule="evenodd" clip-rule="evenodd" d="M3.49223 11.254C3.49223 13.806 2.17725 14.3114 2.17725 16.9897C2.17725 17.7983 2.30875 18.5816 2.57177 19.2638C2.65064 19.1121 2.78214 18.9353 2.91365 18.8342C2.72959 18.2783 2.65064 17.672 2.65064 16.9897C2.65064 15.2463 3.88666 13.7808 4.17599 11.9868C4.20231 11.7594 4.20231 11.5067 4.20231 11.2541C4.22863 9.20749 3.20298 7.48925 3.20298 7.48925L2.20366 7.03442L2.88742 8.52516C3.2293 9.28317 3.49232 10.2181 3.49232 11.254H3.49223Z" fill="url(#paint0_linear_3823_102405)"/>
<path fill-rule="evenodd" clip-rule="evenodd" d="M20.9805 11.2541C20.9805 12.3406 21.4275 13.1997 21.8483 14.1851L22.4005 14.1598C22.0587 13.3512 21.7168 12.5679 21.7168 11.254C21.7168 10.218 21.9798 9.28317 22.3217 8.52516L23.0054 7.03442L21.9798 7.48925C21.9798 7.48925 20.9805 9.2074 20.9805 11.2541Z" fill="url(#paint1_linear_3823_102405)"/>
<path fill-rule="evenodd" clip-rule="evenodd" d="M11.8021 24.0133C10.9869 23.7354 9.85602 23.6343 8.22547 23.23C5.99013 22.6994 3.70214 21.3097 2.93942 18.8335C2.80791 18.9598 2.6764 19.1114 2.59753 19.263C3.46535 21.6381 5.67447 23.3058 8.04133 23.9123C9.56668 24.2913 10.2767 24.3165 11.4076 24.6198C11.5654 24.7714 12.5911 25.8579 12.5911 25.8579V24.8219C12.5911 24.8219 11.9073 24.0892 11.8021 24.0133Z" fill="url(#paint2_linear_3823_102405)"/>
<path fill-rule="evenodd" clip-rule="evenodd" d="M8.40969 22.5232C10.2243 22.9528 11.4078 23.0034 12.1967 23.3823C12.1967 23.3823 12.486 23.635 12.5912 23.7614C12.6964 23.635 12.9858 23.3823 12.9858 23.3823C13.7747 23.0033 14.9582 22.9528 16.7728 22.5232C19.0608 21.9674 21.5328 20.0218 21.5328 16.9897C21.5328 14.8167 20.2441 14.0081 20.2441 11.2539C20.2441 9.38416 20.9805 7.94391 20.9805 7.94391C20.9805 7.94391 19.2975 7.61544 18.5085 5.56881C18.5085 5.56881 17.3777 6.57952 15.826 6.57952C13.8799 6.57952 12.5912 5.26562 12.5912 5.26562C12.5912 5.26562 11.3026 6.57952 9.35647 6.57952C7.80488 6.57952 6.67396 5.56881 6.67396 5.56881C5.88501 7.61544 4.20191 7.94391 4.20191 7.94391C4.20191 7.94391 4.93832 9.38416 4.93832 11.2539C4.93832 14.0081 3.64966 14.8167 3.64966 16.9897C3.64966 20.047 6.1217 21.9674 8.40969 22.5232ZM20.7174 16.9897C20.7174 19.567 18.5873 21.2598 16.5885 21.7652C15.1421 22.119 13.4064 22.2958 12.8542 22.599C12.7226 22.6748 12.5911 22.8264 12.5911 22.8264C12.5911 22.8264 12.4333 22.6748 12.3281 22.599C11.8022 22.3211 10.0401 22.1189 8.59374 21.7652L8.43592 21.7147L19.7443 13.5533C20.1389 14.8672 20.7174 15.701 20.7174 16.9897H20.7174ZM19.9022 8.39874C19.6655 9.05569 19.4025 10.0917 19.4025 11.2539C19.4025 11.7341 19.4288 12.1888 19.5077 12.5678L7.38395 21.3103C5.8586 20.5523 4.54371 19.1121 4.46484 17.1412L18.4031 7.08484C18.9028 7.74179 19.4551 8.14604 19.9022 8.39874ZM5.77982 11.2539C5.77982 10.0664 5.5168 9.05569 5.28011 8.39874C5.80605 8.12084 6.48981 7.61544 7.01584 6.75636C7.59442 7.05955 8.40969 7.38802 9.35647 7.38802C10.8029 7.38802 11.9337 6.78165 12.5912 6.32682C13.2487 6.78165 14.3795 7.38802 15.826 7.38802C16.0627 7.38802 16.2731 7.36274 16.4834 7.33745L4.62276 15.8778C4.96464 14.5892 5.77991 13.5279 5.77991 11.2539L5.77982 11.2539Z" fill="url(#paint3_linear_3823_102405)"/>
<path fill-rule="evenodd" clip-rule="evenodd" d="M9.35697 5.87231C11.3031 5.87231 12.5917 4.28042 12.5917 4.28042V3.26971L11.5661 4.22985C11.0402 4.73516 10.1986 5.1395 9.35697 5.1395C8.72584 5.1395 8.12095 4.8616 7.62124 4.45726L6.04333 3.19385L6.38522 4.3814C6.3589 4.3814 7.85793 5.87213 9.35697 5.87213V5.87231Z" fill="url(#paint4_linear_3823_102405)"/>
<path fill-rule="evenodd" clip-rule="evenodd" d="M22.506 16.9901C22.506 20.3001 20.0602 22.4731 16.957 23.2311C15.3265 23.6354 14.1957 23.7364 13.3804 24.0144C13.2752 24.1155 12.5914 24.823 12.5914 24.823V25.859C12.5914 25.859 13.6434 24.7725 13.7749 24.6209C14.9057 24.3177 15.6158 24.2924 17.1412 23.9133C20.2181 23.1553 23.0058 20.578 23.0058 16.9901C23.0058 15.7015 22.7166 14.9182 22.4009 14.1602L21.8487 14.1854C22.1905 14.994 22.5061 15.8784 22.5061 16.9901H22.506Z" fill="url(#paint5_linear_3823_102405)"/>
<path fill-rule="evenodd" clip-rule="evenodd" d="M15.8258 5.87222C17.3248 5.87222 18.8239 4.40668 18.8239 4.40668L19.1657 3.19385L17.5878 4.45726C17.0619 4.86151 16.4833 5.1395 15.8521 5.1395C15.0105 5.1395 14.169 4.73525 13.643 4.22985L12.6173 3.26971V4.25513C12.591 4.28042 13.8797 5.87222 15.8258 5.87222Z" fill="url(#paint6_linear_3823_102405)"/>
<path fill-rule="evenodd" clip-rule="evenodd" d="M6.35872 4.3814L6.04315 3.19385L5.33307 5.06363C5.01751 5.87222 4.5178 6.37753 3.80771 6.57966L2.20349 7.03448L3.20282 7.48931C3.20282 7.48931 5.70127 7.28718 6.35872 4.3814Z" fill="url(#paint7_linear_3823_102405)"/>
<path fill-rule="evenodd" clip-rule="evenodd" d="M4.86866 15.8411L16.3626 7.50203C16.1587 7.52665 15.9293 7.55127 15.7255 7.55127C14.3238 7.55127 13.2279 6.96093 12.5907 6.51814C11.9536 6.96093 10.8578 7.55127 9.45599 7.55127C8.53849 7.55127 7.74843 7.2561 7.18774 6.93631C6.67807 7.77267 6.01545 8.2647 5.50568 8.53525C5.73506 9.17482 5.98994 10.1834 5.98994 11.3149C5.98994 13.5534 5.19988 14.5866 4.86857 15.8412L4.86866 15.8411ZM8.56408 21.5235L8.71703 21.5727C10.1187 21.9171 11.8008 22.0893 12.3359 22.3844C12.4634 22.4582 12.5908 22.6058 12.5908 22.6058C12.5908 22.6058 12.7438 22.4582 12.8457 22.3844C13.3554 22.1139 15.0629 21.917 16.4646 21.5727C18.4016 21.1053 20.4658 19.4572 20.4658 16.9235C20.4658 15.6689 19.9052 14.8571 19.5229 13.578L8.56417 21.5235H8.56408ZM3.46699 11.3395C3.46699 13.7256 2.19276 14.2668 2.19276 16.9235C2.19276 20.7363 5.25098 23.2454 8.10542 23.9588C9.5326 24.3032 9.96584 24.3278 11.2656 24.623C11.3675 24.7213 12.5908 26.0005 12.5908 26.0005C12.5908 26.0005 13.8141 24.746 13.9161 24.623C15.2158 24.3032 15.649 24.3032 17.0762 23.9588C19.9306 23.2454 22.9889 20.7363 22.9889 16.9235C22.9889 14.2668 21.7146 13.7256 21.7146 11.3395C21.7146 10.4785 21.8929 9.61753 22.2753 8.80579L23.0908 7.0347L21.2049 6.51814C20.6187 6.34598 20.211 5.9278 19.9306 5.23899L19.0896 3.02511L17.2037 4.52565C16.7194 4.91921 16.2097 5.11599 15.7001 5.11599C15.0374 5.11599 14.2729 4.7962 13.7886 4.32879L12.5908 3.17265L11.393 4.32879C10.8833 4.82073 10.1442 5.11599 9.48158 5.11599C8.99733 5.11599 8.48765 4.91921 7.97798 4.52565L6.09205 3.00049L5.25107 5.21437C4.99619 5.90318 4.56294 6.34589 3.97675 6.49352L2.09082 7.05932L2.90639 8.83041C3.2632 9.61761 3.46707 10.4786 3.46707 11.3396L3.46699 11.3395ZM4.07859 6.78869C4.76672 6.59191 5.25089 6.09988 5.55678 5.31276L6.24491 3.49243L7.77402 4.72243C8.2837 5.11598 8.84438 5.38662 9.45608 5.38662C10.2716 5.38662 11.0871 4.99306 11.5969 4.50103L12.5908 3.56629L13.5848 4.50103C14.0944 4.99298 14.91 5.38662 15.7256 5.38662C16.3372 5.38662 16.9234 5.11607 17.4076 4.72243L18.9367 3.49243L19.6249 5.31276C19.9307 6.09996 20.4149 6.59191 21.103 6.78869L22.6577 7.23148L21.995 8.68279C21.6637 9.42075 21.4088 10.3063 21.4088 11.3395C21.4088 12.6186 21.7402 13.3812 22.0715 14.1684C22.3773 14.9064 22.6577 15.6689 22.6577 16.9235C22.6832 20.4165 19.9817 22.9256 16.9999 23.6636C15.5217 24.0326 14.8337 24.0572 13.7377 24.3524C13.5848 24.5 12.5908 25.5578 12.5908 25.5578C12.5908 25.5578 11.5714 24.5 11.4439 24.3524C10.3481 24.0572 9.65995 24.0326 8.18176 23.6636C5.88809 23.0978 3.74728 21.4742 2.9063 19.1373C2.65142 18.4485 2.52398 17.7106 2.52398 16.9235C2.49847 14.3159 3.77279 13.824 3.77279 11.3395C3.77279 10.3309 3.51791 9.42075 3.1866 8.68279L2.52398 7.23148L4.07859 6.78869ZM7.54465 21.1299L19.2935 12.6187C19.2424 12.2251 19.1915 11.807 19.1915 11.3396C19.1915 10.1834 19.4464 9.19944 19.6758 8.55986C19.2425 8.31385 18.6818 7.94491 18.2231 7.30534L4.7158 17.0957C4.79223 19.0144 6.09205 20.4166 7.54465 21.1299ZM16.5665 9.34698V12.5941L18.3505 11.2903C18.3505 11.2903 18.2995 11.7085 18.3505 12.3973L15.5471 14.439V10.9705C15.5471 10.4786 15.0629 10.454 15.0629 10.454L16.5665 9.34698H16.5665ZM12.6417 12.2004V13.824L13.7631 13.0123V11.3887L14.7315 10.6754V15.054L13.7631 15.7919V14.193L12.6417 15.0047V16.6037L11.6223 17.3416V13.824C11.6223 13.332 11.1381 13.3074 11.1381 13.3074L12.6417 12.2004H12.6417ZM8.48757 15.2261L9.73638 17.0957V14.316L10.7303 13.6027V17.9813L9.68537 18.7439L8.56399 17.0712V19.5557L7.57006 20.269V16.7514C7.57006 16.2594 7.08581 16.2348 7.08581 16.2348L8.48748 15.2262L8.48757 15.2261ZM4.43541 12.0529C4.23154 14.0454 3.2121 14.8326 3.2121 16.9235C3.2121 19.4818 5.04702 22.1877 8.36021 22.9994C9.94034 23.393 11.0362 23.4913 11.8263 23.762C11.9282 23.8604 12.5908 24.5492 12.5908 24.5492C12.5908 24.5492 13.2534 23.8604 13.3554 23.762C14.1454 23.4914 15.2413 23.393 16.8214 22.9994C20.16 22.1877 21.9695 19.4818 21.9695 16.9235C21.9695 14.5866 20.7207 13.8732 20.7207 11.3395C20.7207 9.34698 21.6891 7.67419 21.6891 7.67419C21.6891 7.67419 19.268 7.47741 18.6309 4.64849C18.6309 4.64849 17.1782 6.07526 15.7256 6.07526C13.8396 6.07526 12.5908 4.52548 12.5908 4.52548C12.5908 4.52548 11.342 6.07526 9.45608 6.07526C8.0034 6.07526 6.55071 4.64849 6.55071 4.64849C5.9136 7.47741 3.49249 7.67419 3.49249 7.67419C3.49249 7.67419 4.46092 9.34689 4.46092 11.3395C4.48642 11.61 4.46092 11.8314 4.43541 12.0528V12.0529ZM4.48642 8.11707C4.48642 8.11707 6.11747 7.79728 6.88202 5.80479C6.88202 5.80479 7.97789 6.78877 9.48158 6.78877C11.3675 6.78877 12.6163 5.50963 12.6163 5.50963C12.6163 5.50963 13.8651 6.78877 15.7511 6.78877C17.2547 6.78877 18.3506 5.80479 18.3506 5.80479C19.1152 7.79728 20.7462 8.11707 20.7462 8.11707C20.7462 8.11707 20.0326 9.51922 20.0326 11.3396C20.0326 14.0209 21.2814 14.8081 21.2814 16.9235C21.2814 19.8754 18.8858 21.7696 16.6686 22.3108C14.9101 22.7289 13.7632 22.7782 12.9986 23.1471C12.9986 23.1471 12.7183 23.3931 12.6163 23.5161C12.5144 23.3931 12.234 23.1471 12.234 23.1471C11.4694 22.7781 10.3226 22.7289 8.56408 22.3108C6.34684 21.7696 3.95124 19.8755 3.95124 16.9235C3.95124 14.8081 5.20005 14.0209 5.20005 11.3396C5.17455 9.51922 4.48642 8.11707 4.48642 8.11707Z" fill="#2B2626"/>
</g>
<defs>
<linearGradient id="paint0_linear_3823_102405" x1="-12.828" y1="0.626886" x2="-11.9253" y2="0.626886" gradientUnits="userSpaceOnUse">
<stop stop-color="white"/>
<stop offset="0.11" stop-color="white"/>
<stop offset="0.24" stop-color="#DCDFE1"/>
<stop offset="0.44" stop-color="#A8AFB3"/>
<stop offset="0.54" stop-color="#949CA1"/>
<stop offset="1" stop-color="#949CA1"/>
</linearGradient>
<linearGradient id="paint1_linear_3823_102405" x1="-5.90362" y1="0.980475" x2="-5.90362" y2="-1.4914" gradientUnits="userSpaceOnUse">
<stop stop-color="white"/>
<stop offset="0.35" stop-color="white"/>
<stop offset="0.56" stop-color="#949CA1"/>
<stop offset="1" stop-color="#949CA1"/>
</linearGradient>
<linearGradient id="paint2_linear_3823_102405" x1="-12.6202" y1="3.8094" x2="-9.15496" y2="3.8094" gradientUnits="userSpaceOnUse">
<stop stop-color="white"/>
<stop offset="0.15" stop-color="white"/>
<stop offset="0.21" stop-color="#FAFAFA"/>
<stop offset="0.29" stop-color="#EBECED"/>
<stop offset="0.37" stop-color="#D2D5D7"/>
<stop offset="0.45" stop-color="#AFB5B9"/>
<stop offset="0.51" stop-color="#949CA1"/>
<stop offset="1" stop-color="#949CA1"/>
</linearGradient>
<linearGradient id="paint3_linear_3823_102405" x1="-7.0985" y1="3.64127" x2="-10.9902" y2="-2.14183" gradientUnits="userSpaceOnUse">
<stop stop-color="#949CA1"/>
<stop offset="0.01" stop-color="#99A1A6"/>
<stop offset="0.12" stop-color="#C2C6C8"/>
<stop offset="0.2" stop-color="#DBDDDE"/>
<stop offset="0.25" stop-color="#E4E5E6"/>
<stop offset="0.75" stop-color="#E4E5E6"/>
<stop offset="0.8" stop-color="#DCDEDF"/>
<stop offset="0.87" stop-color="#C7CACD"/>
<stop offset="0.97" stop-color="#A3AAAE"/>
<stop offset="1" stop-color="#949CA1"/>
</linearGradient>
<linearGradient id="paint4_linear_3823_102405" x1="-11.4266" y1="-2.36013" x2="-9.1544" y2="-2.36013" gradientUnits="userSpaceOnUse">
<stop stop-color="white"/>
<stop offset="0.25" stop-color="white"/>
<stop offset="0.34" stop-color="#FAFAFA"/>
<stop offset="0.45" stop-color="#EBECED"/>
<stop offset="0.57" stop-color="#D2D5D7"/>
<stop offset="0.7" stop-color="#AFB5B9"/>
<stop offset="0.79" stop-color="#949CA1"/>
<stop offset="1" stop-color="#949CA1"/>
</linearGradient>
<linearGradient id="paint5_linear_3823_102405" x1="-9.1547" y1="3.00023" x2="-5.55009" y2="3.00023" gradientUnits="userSpaceOnUse">
<stop stop-color="white"/>
<stop offset="0.2" stop-color="white"/>
<stop offset="0.33" stop-color="#FAFBFB"/>
<stop offset="0.47" stop-color="#EDEEEF"/>
<stop offset="0.63" stop-color="#D7DADC"/>
<stop offset="0.79" stop-color="#B8BDC1"/>
<stop offset="0.93" stop-color="#949CA1"/>
<stop offset="1" stop-color="#949CA1"/>
</linearGradient>
<linearGradient id="paint6_linear_3823_102405" x1="-9.15502" y1="-2.36021" x2="-6.88278" y2="-2.36021" gradientUnits="userSpaceOnUse">
<stop stop-color="white"/>
<stop offset="0.25" stop-color="white"/>
<stop offset="0.34" stop-color="#FAFAFA"/>
<stop offset="0.45" stop-color="#EBECED"/>
<stop offset="0.57" stop-color="#D2D5D7"/>
<stop offset="0.7" stop-color="#AFB5B9"/>
<stop offset="0.79" stop-color="#949CA1"/>
<stop offset="1" stop-color="#949CA1"/>
</linearGradient>
<linearGradient id="paint7_linear_3823_102405" x1="-12.7564" y1="-2.0768" x2="-11.3121" y2="-2.0768" gradientUnits="userSpaceOnUse">
<stop stop-color="white"/>
<stop offset="0.39" stop-color="white"/>
<stop offset="0.47" stop-color="#FAFAFA"/>
<stop offset="0.57" stop-color="#EBECED"/>
<stop offset="0.67" stop-color="#D2D5D7"/>
<stop offset="0.79" stop-color="#AFB5B9"/>
<stop offset="0.87" stop-color="#949CA1"/>
<stop offset="1" stop-color="#949CA1"/>
</linearGradient>
<clipPath id="clip0_3823_102405">
<rect width="25" height="28" fill="white"/>
</clipPath>
</defs>
</svg>
