<svg width="45" height="45" viewBox="0 0 45 45" fill="none" xmlns="http://www.w3.org/2000/svg">
<path d="M34.505 31.876L33.4201 30.626C33.0672 34.2758 30.9628 37.2145 27.6338 39.376L27.1248 37.4073C24.2989 39.4206 19.1422 40.0927 14.9762 37.7688C15.4939 35.1659 15.8819 32.9474 15.6995 30.0902C13.3927 33.6135 11.3598 34.9117 11.3598 34.9117C9.80097 32.3304 9.62893 27.1503 10.0941 25.626L7.5 26.4183C7.5 24.6783 8.61538 20.7353 10.4556 18.6617L8.82821 18.4831C9.92914 16.2642 11.9084 13.7892 13.9192 12.3526C13.9192 12.3526 14.1706 11.9108 14.7953 11.5188C15.3999 11.1395 15.852 11.1599 15.8805 11.1616C17.9598 10.1061 20.4346 9.37598 22.9324 9.37598C23.399 9.37598 23.8641 9.39611 24.3191 9.43639L26.2264 9.72686C28.9313 10.3769 29.8051 11.7497 30.3461 12.2731H27.51L31.1335 14.9118C31.6234 15.3173 32.1543 17.2331 32.1326 17.4367C32.1326 17.4367 32.5318 18.3202 33.0584 18.8403C33.8734 19.6451 35.0259 21.772 35.4091 23.8402C35.8762 26.3609 35.59 29.1974 34.505 31.876Z" fill="white"/>
<path d="M22.9932 9.30859C23.4706 9.30859 23.9466 9.33007 24.4121 9.37207C25.1551 9.67201 26.2462 10.7245 26.7549 11.3799C26.7554 11.3686 26.7868 10.6007 26.3633 9.6748C29.1308 10.3527 30.4514 11.4854 31.0049 12.0312C31.1183 13.2337 31.4763 13.955 31.9492 15.0977C31.0526 14.0884 28.8004 12.4594 27.7246 12.0693C27.7246 12.0693 27.6366 13.1124 27.2666 13.6133C25.145 12.0747 24.0925 11.6756 24.0723 11.668C21.721 12.0069 20.2078 12.9189 19.3857 13.6357L20.1016 14.249C18.6891 14.6856 17.7698 15.9021 17.7637 15.9102C17.774 15.9325 19.0061 16.1098 19.0303 16.1133C19.0282 16.1394 18.9186 17.6049 20.749 18.5264C22.332 19.3227 24.6076 18.3344 26.75 19.1982C25.3455 17.5681 24.3724 16.837 24.3672 16.833C24.3599 16.8315 23.8054 16.7158 23.4141 16.7188C22.9218 16.7217 22.1878 16.8196 21.3838 16.5049C20.9989 16.3534 20.5493 16.0862 20.1973 15.8643C20.1973 15.8643 21.1864 14.8432 22.6318 14.6182C22.6318 14.6182 23.9363 14.9871 24.9688 15.7549C25.655 15.083 26.3711 15.1035 26.3711 15.1035C26.3711 15.1035 25.6612 15.7694 25.876 16.5762C26.9069 17.5 28.0254 18.8232 28.0254 18.8232C29.1652 18.1964 31.6435 18.3398 32.1523 18.9336C31.5079 18.0924 30.5784 17.3908 29.8594 16.791C29.7713 16.4762 28.9865 15.3787 28.8535 15.2764C28.8591 15.2781 29.6022 15.5093 30.2666 16.1084C30.4576 15.834 30.8159 15.5546 31.3037 15.4316C31.8048 15.8545 31.8943 16.5041 31.8809 16.6123C31.6556 16.8838 31.4316 16.9951 31.4316 16.9951L32.6396 18.3096L32.7607 17.3672C35.5446 21.3637 37.0627 25.9887 35.1113 31.8027L33.8457 30.3945C33.4847 34.2006 31.6305 37.4325 28.2246 39.6865L27.7041 37.6338C24.8128 39.7333 19.8503 41.0944 15.5879 38.6709C16.1175 35.9566 16.5876 33.2062 15.5791 29.9131C13.2189 33.5873 11.1299 35.0273 11.1299 35.0273C9.535 32.3355 9.67838 26.9344 10.1543 25.3447L7.5 26.1719C7.5 24.3572 8.79979 20.5072 10.6826 18.3447L9.02441 18.0781C10.1508 15.7641 11.8314 13.7696 13.8887 12.2715L13.8916 12.2695C13.274 13.2503 13.2645 15.671 15.0742 16.5918C14.3059 15.2376 14.213 13.5631 15.0156 12.6963C15.8182 11.8221 17.1689 12.1221 18.0312 12.7998C17.7746 12.0441 17.0226 11.0938 15.8965 11.0293C18.0239 9.92857 20.4375 9.30861 22.9932 9.30859ZM29.4785 25.332C29.4438 25.362 27.3989 27.1195 26.1475 27.1611C26.1475 27.1611 26.8422 28.4612 27.1943 29.1406C27.8881 28.9876 29.1102 28.4372 29.6025 27.8613C29.6025 27.8613 29.9283 28.9156 29.8672 30.1602C30.5578 29.7581 31.509 28.6667 31.8447 26.9473C31.8447 26.9473 31.6866 26.0918 31.0137 25.2939L29.4785 25.332ZM27.9678 20.0801C26.0014 20.3785 23.6201 22.3672 23.6201 22.3672C23.6308 22.3876 24.4304 23.9122 25.3047 25.5566C26.8518 25.7741 29.1316 23.809 29.8672 23.2031L29.8643 21.1387C29.8643 21.1387 28.9464 20.8433 27.9678 20.0801ZM32.4746 20.1621C31.7003 20.816 31.0439 21.1807 31.0439 21.1807L31.0527 23.2529C31.6062 23.8737 32.1528 24.388 32.5615 25.3252C33.3371 23.9215 33.1877 21.8581 32.4746 20.1621ZM25.7441 3.46191C25.8381 4.8641 25.9672 6.86946 26 7.1709C26.1089 7.02233 26.9429 5.84638 28.3408 4.76367C27.7351 5.9634 27.4447 7.61905 27.3164 8.94922C25.9411 8.56394 24.4897 8.35648 22.9951 8.35645C20.1232 8.35645 17.4256 9.116 15.0938 10.4492C14.6701 9.16401 14.0063 7.56453 13.126 6.50879C14.7313 7.24811 15.7622 8.18176 15.9502 8.32422C15.8651 7.90734 15.5482 5.90052 15.3662 4.6543C16.3016 5.30666 18.4729 6.82161 19.1875 7.31348C19.4784 6.41217 20.4873 3.46777 20.4873 3.46777C20.4987 3.48625 22.3112 6.43616 22.6221 6.91602C23.0025 6.51567 25.18 4.07848 25.7441 3.46191Z" fill="#38003D"/>
<path d="M22.9932 9.30859C23.4706 9.30859 23.9466 9.33007 24.4121 9.37207C25.1551 9.67201 26.2462 10.7245 26.7549 11.3799C26.7554 11.3686 26.7868 10.6007 26.3633 9.6748C29.1308 10.3527 30.4514 11.4854 31.0049 12.0312C31.1183 13.2337 31.4763 13.955 31.9492 15.0977C31.0526 14.0884 28.8004 12.4594 27.7246 12.0693C27.7246 12.0693 27.6366 13.1124 27.2666 13.6133C25.145 12.0747 24.0925 11.6756 24.0723 11.668C21.721 12.0069 20.2078 12.9189 19.3857 13.6357L20.1016 14.249C18.6891 14.6856 17.7698 15.9021 17.7637 15.9102C17.774 15.9325 19.0061 16.1098 19.0303 16.1133C19.0282 16.1394 18.9186 17.6049 20.749 18.5264C22.332 19.3227 24.6076 18.3344 26.75 19.1982C25.3455 17.5681 24.3724 16.837 24.3672 16.833C24.3599 16.8315 23.8054 16.7158 23.4141 16.7188C22.9218 16.7217 22.1878 16.8196 21.3838 16.5049C20.9989 16.3534 20.5493 16.0862 20.1973 15.8643C20.1973 15.8643 21.1864 14.8432 22.6318 14.6182C22.6318 14.6182 23.9363 14.9871 24.9688 15.7549C25.655 15.083 26.3711 15.1035 26.3711 15.1035C26.3711 15.1035 25.6612 15.7694 25.876 16.5762C26.9069 17.5 28.0254 18.8232 28.0254 18.8232C29.1652 18.1964 31.6435 18.3398 32.1523 18.9336C31.5079 18.0924 30.5784 17.3908 29.8594 16.791C29.7713 16.4762 28.9865 15.3787 28.8535 15.2764C28.8591 15.2781 29.6022 15.5093 30.2666 16.1084C30.4576 15.834 30.8159 15.5546 31.3037 15.4316C31.8048 15.8545 31.8943 16.5041 31.8809 16.6123C31.6556 16.8838 31.4316 16.9951 31.4316 16.9951L32.6396 18.3096L32.7607 17.3672C35.5446 21.3637 37.0627 25.9887 35.1113 31.8027L33.8457 30.3945C33.4847 34.2006 31.6305 37.4325 28.2246 39.6865L27.7041 37.6338C24.8128 39.7333 19.8503 41.0944 15.5879 38.6709C16.1175 35.9566 16.5876 33.2062 15.5791 29.9131C13.2189 33.5873 11.1299 35.0273 11.1299 35.0273C9.535 32.3355 9.67838 26.9344 10.1543 25.3447L7.5 26.1719C7.5 24.3572 8.79979 20.5072 10.6826 18.3447L9.02441 18.0781C10.1508 15.7641 11.8314 13.7696 13.8887 12.2715L13.8916 12.2695C13.274 13.2503 13.2645 15.671 15.0742 16.5918C14.3059 15.2376 14.213 13.5631 15.0156 12.6963C15.8182 11.8221 17.1689 12.1221 18.0312 12.7998C17.7746 12.0441 17.0226 11.0938 15.8965 11.0293C18.0239 9.92857 20.4375 9.30861 22.9932 9.30859ZM29.4785 25.332C29.4438 25.362 27.3989 27.1195 26.1475 27.1611C26.1475 27.1611 26.8422 28.4612 27.1943 29.1406C27.8881 28.9876 29.1102 28.4372 29.6025 27.8613C29.6025 27.8613 29.9283 28.9156 29.8672 30.1602C30.5578 29.7581 31.509 28.6667 31.8447 26.9473C31.8447 26.9473 31.6866 26.0918 31.0137 25.2939L29.4785 25.332ZM27.9678 20.0801C26.0014 20.3785 23.6201 22.3672 23.6201 22.3672C23.6308 22.3876 24.4304 23.9122 25.3047 25.5566C26.8518 25.7741 29.1316 23.809 29.8672 23.2031L29.8643 21.1387C29.8643 21.1387 28.9464 20.8433 27.9678 20.0801ZM32.4746 20.1621C31.7003 20.816 31.0439 21.1807 31.0439 21.1807L31.0527 23.2529C31.6062 23.8737 32.1528 24.388 32.5615 25.3252C33.3371 23.9215 33.1877 21.8581 32.4746 20.1621ZM25.7441 3.46191C25.8381 4.8641 25.9672 6.86946 26 7.1709C26.1089 7.02233 26.9429 5.84638 28.3408 4.76367C27.7351 5.9634 27.4447 7.61905 27.3164 8.94922C25.9411 8.56394 24.4897 8.35648 22.9951 8.35645C20.1232 8.35645 17.4256 9.116 15.0938 10.4492C14.6701 9.16401 14.0063 7.56453 13.126 6.50879C14.7313 7.24811 15.7622 8.18176 15.9502 8.32422C15.8651 7.90734 15.5482 5.90052 15.3662 4.6543C16.3016 5.30666 18.4729 6.82161 19.1875 7.31348C19.4784 6.41217 20.4873 3.46777 20.4873 3.46777C20.4987 3.48625 22.3112 6.43616 22.6221 6.91602C23.0025 6.51567 25.18 4.07848 25.7441 3.46191Z" stroke="white"/>
</svg>
