<svg width="24" height="24" viewBox="0 0 24 24" fill="none" xmlns="http://www.w3.org/2000/svg">
<path d="M12.0854 2.05188L12.1362 2.05297C12.3533 2.05907 12.5512 2.07758 12.7605 2.13898L12.8561 2.16293C13.7053 2.3735 14.5297 2.82578 15.1122 3.48905L15.1558 3.5326C15.183 3.56047 15.183 3.56047 15.2135 3.59989L15.2481 3.64431L15.2851 3.6933L15.3232 3.74361C15.5327 4.02451 15.7045 4.32588 15.8526 4.64314L15.8876 4.7174C16.1908 5.38764 16.2924 6.15696 16.2228 6.886L16.218 6.9387C16.147 7.65598 15.892 8.34669 15.652 9.02129L15.635 9.06898C15.6085 9.14367 15.5815 9.21857 15.5545 9.29305L15.5257 9.37253L15.5003 9.44199C15.4495 9.5797 15.4095 9.70152 15.3424 9.8788L15.3197 9.93934L15.2481 10.1307L15.2008 10.2575C15.0776 10.5874 15.0776 10.5874 15.033 10.7006L15.0029 10.7773L14.9772 10.8415C14.8962 11.0437 14.8165 11.2468 14.7353 11.4495L14.7183 11.4921C14.5929 11.8048 14.4585 12.1132 14.3218 12.4211C14.2865 12.5006 14.2514 12.5802 14.2166 12.6599C14.072 12.9885 13.9205 13.3136 13.7621 13.6364L13.7295 13.7032C13.5744 14.0194 13.4113 14.3305 13.2395 14.638L13.2069 14.6966C12.9194 15.2107 12.6024 15.6996 12.2379 16.1623L12.1941 16.2183C12.1 16.3369 12.0029 16.453 11.9043 16.568C11.7681 16.7274 11.7132 16.8018 11.5613 16.953L11.5075 17.0065L11.4511 17.062L11.3963 17.1167C11.2885 17.2238 11.1776 17.3264 11.062 17.4253L10.9976 17.4819C9.89834 18.4308 9.89834 18.4308 9.2858 18.4311L9.20283 18.4319H9.12379L9.05106 18.4321C8.99335 18.4269 8.99335 18.4269 8.9498 18.3834L8.96853 18.3396C9.60546 16.8341 10.2034 15.077 9.95735 13.4277C9.94299 13.3315 9.94297 13.3642 9.9188 13.2335C9.8886 13.0702 9.85304 12.9034 9.80862 12.741L9.79708 12.6981C9.69539 12.3218 9.57563 11.9507 9.42886 11.5895C9.38905 11.4915 9.26075 11.2319 9.22417 11.1098C9.19216 11.0081 9.15275 10.912 9.10898 10.8149L9.08916 10.7698C9.01208 10.5974 8.92585 10.4295 8.84093 10.261L8.79433 10.1684L8.77103 10.1223L8.67914 9.93956L8.63188 9.84614L8.56264 9.70874L8.5413 9.66649C8.49252 9.56937 8.49252 9.56937 8.49252 9.52082C8.57636 9.55479 8.62557 9.60792 8.68719 9.67324C9.15297 10.1519 9.79447 10.4683 10.4523 10.566L10.51 10.5747C10.8347 10.617 11.1872 10.5815 11.4975 10.4789C11.7915 10.3818 12.036 10.2405 12.2753 10.0245C12.3794 9.94543 12.4121 9.91277 12.4774 9.82567L12.5924 9.66998C12.6601 9.59899 12.7032 9.52735 12.7496 9.44177L12.7753 9.39495C12.9586 9.06736 13.069 8.71563 13.1302 8.34756C13.1598 8.15746 13.1686 7.96671 13.1788 7.77487C13.1908 7.57388 13.2091 7.3975 13.2953 7.21394C13.3774 7.02275 13.3926 6.84593 13.3266 6.64647C13.221 6.42058 12.8472 6.27374 12.6475 6.49535C12.5308 6.68458 12.5229 6.86531 12.5427 7.08198C12.5634 7.15972 12.5937 7.22809 12.6298 7.29973C12.8206 7.73284 12.7827 8.29748 12.6216 8.73429C12.603 8.77893 12.5841 8.82335 12.5645 8.86756L12.5401 8.92439C12.3195 9.40279 11.8847 9.75098 11.3989 9.93172C10.8146 10.1223 10.2052 10.0504 9.65772 9.78168C9.01774 9.45157 8.56438 8.91481 8.20944 8.3014C8.12234 8.11631 8.04049 7.91505 8.00454 7.8304C7.92636 7.60459 7.85913 7.38216 7.81618 7.13511L7.80464 7.07066C7.6006 5.90176 7.9072 4.76748 8.5683 3.80175C8.65979 3.67193 8.76893 3.5567 8.87686 3.44071L8.91736 3.39803L8.95917 3.35361C9.76006 2.51221 10.924 2.02444 12.0854 2.05188Z" fill="#2B2B29"/>
<path d="M8.83879 18.9247L8.90782 18.9245H8.98425L9.06504 18.9243L9.2878 18.9239L9.52776 18.9234L10.1079 18.9225L10.3807 18.9221L11.2872 18.9212L11.5226 18.921H11.5816C11.8978 18.9208 12.2137 18.9204 12.5299 18.9195C12.8542 18.9188 13.1784 18.9184 13.5026 18.9184C13.6849 18.9184 13.8669 18.9182 14.0492 18.9175C14.2042 18.9171 14.3593 18.9169 14.5145 18.9171C14.5936 18.9171 14.6728 18.9171 14.7521 18.9167C14.8379 18.9162 14.9235 18.9165 15.0093 18.9167L15.0857 18.916L15.1549 18.9167H15.2148C15.2647 18.9276 15.2647 18.9276 15.3021 18.967C15.3429 19.0362 15.3738 19.1089 15.4045 19.183L15.426 19.2339L15.4962 19.401L15.5456 19.5183L15.6225 19.7008C15.6808 19.8395 15.7396 19.978 15.7986 20.1163C16.3828 21.4851 16.3829 21.4851 16.306 21.7324C16.2239 21.8768 16.1383 21.9624 15.9835 22.0197C15.9108 22.0366 15.8435 22.044 15.769 22.044C13.268 22.044 10.7647 22.0326 8.2637 22.0506C8.05553 22.0484 7.88176 21.9913 7.72999 21.8457C7.65508 21.7573 7.62155 21.6558 7.61523 21.5406C7.6442 21.2135 7.84475 20.886 7.97518 20.5884C8.04573 20.4274 8.1152 20.2659 8.18422 20.1043L8.22538 20.0083L8.28287 19.8741L8.31618 19.7966C8.38708 19.635 8.45503 19.4501 8.54809 19.2477L8.57444 19.1895C8.59774 19.1383 8.62082 19.0874 8.64477 19.0367L8.66655 18.9883C8.70727 18.9151 8.76192 18.9249 8.83879 18.9247ZM9.8422 20.6916C9.9262 20.8297 10.0246 20.8473 10.1738 20.8473C11.402 20.8527 12.6314 20.8351 13.8593 20.8586C13.9793 20.8566 14.0287 20.8172 14.1102 20.7356C14.2347 20.4864 13.959 20.382 13.7541 20.3815C12.6351 20.3764 11.5161 20.3809 10.397 20.3787C10.1771 20.3677 9.79173 20.3843 9.8422 20.6916Z" fill="#2B2B29"/>
<path d="M13.7623 14.377H13.7841L13.8002 14.4584C14.0406 15.6621 14.3751 16.8193 14.7685 17.9812L14.7938 18.0563L14.8415 18.197L14.8628 18.2601L14.8816 18.3152C14.8946 18.3618 14.8946 18.3618 14.8946 18.4272H10.6484C10.6757 18.3451 10.7059 18.3314 10.7765 18.2828C11.2412 17.954 11.6943 17.5542 12.0638 17.1206L12.1244 17.0503C12.2302 16.9275 12.3356 16.8042 12.4395 16.6797L12.4874 16.6222C12.5701 16.5305 12.6649 16.3805 12.7402 16.2688L12.7715 16.2226C12.8044 16.1736 12.8371 16.1246 12.8695 16.0756L12.9011 16.0284C13.2173 15.5543 13.4577 15.0381 13.6926 14.5207C13.7151 14.4721 13.7381 14.4244 13.7623 14.377Z" fill="#2B2B29"/>
</svg>
