<svg width="33" height="32" viewBox="0 0 33 32" fill="none" xmlns="http://www.w3.org/2000/svg">
<g id="BOL220628_bettingicons-coloured-28 1">
<g id="Clip path group">
<mask id="mask0_1208_90411" style="mask-type:luminance" maskUnits="userSpaceOnUse" x="2" y="0" width="29" height="32">
<g id="clippath">
<path id="Vector" d="M30.175 0H2.82031V32H30.175V0Z" fill="white"/>
</g>
</mask>
<g mask="url(#mask0_1208_90411)">
<g id="Group">
<g id="Group_2">
<path id="Vector_2" d="M17.3159 9.52C19.9453 9.52 22.0733 7.38667 22.0733 4.76267C22.0733 2.13867 19.9453 0 17.3159 0C14.6866 0 12.5586 2.13333 12.5586 4.75733C12.5586 7.38133 14.6919 9.51467 17.3159 9.51467V9.52Z" fill="#E7A51F"/>
<path id="Vector_3" d="M22.062 13.0186C24.6914 13.0186 26.8194 10.8852 26.8194 8.26124C26.8194 5.63724 24.686 3.50391 22.062 3.50391C19.438 3.50391 17.3047 5.63724 17.3047 8.26124C17.3047 10.8852 19.438 13.0186 22.062 13.0186Z" fill="#FFCD54"/>
<path id="Vector_4" d="M10.7827 12.4854C13.4121 12.4854 15.5401 10.352 15.5401 7.72804C15.5401 5.10404 13.4067 2.9707 10.7827 2.9707C8.15872 2.9707 6.02539 5.10404 6.02539 7.72804C6.02539 10.352 8.15872 12.4854 10.7827 12.4854Z" fill="#FFCD54"/>
<path id="Vector_5" d="M6.55278 25.9892L10.4728 28.6879C10.4728 28.6879 6.76078 31.9946 5.39545 31.9946C4.03012 31.9946 6.55278 25.9839 6.55278 25.9839V25.9892Z" fill="#FBBA75"/>
<path id="Vector_6" d="M7.97135 28.1814C8.51535 28.6187 9.09135 29.0081 9.69935 29.3547C8.56868 30.3361 7.32602 31.1787 5.99268 31.8614C5.99268 31.8614 5.41668 32.1227 5.16602 31.9201C6.27535 30.8161 7.21935 29.5574 7.97135 28.1867V28.1814Z" fill="#ECA169"/>
<path id="Vector_7" d="M26.1427 25.9892L22.2227 28.6879C22.2227 28.6879 25.9347 31.9946 27.3053 31.9946C28.676 31.9946 26.1427 25.9839 26.1427 25.9839V25.9892Z" fill="#FBBA75"/>
<path id="Vector_8" d="M24.7241 28.1814C24.1801 28.6187 23.6041 29.0081 22.9961 29.3547C24.1214 30.3361 25.3641 31.1787 26.6974 31.8614C26.6974 31.8614 27.2734 32.1227 27.5188 31.9201C26.4148 30.8161 25.4708 29.5574 24.7241 28.1867V28.1814Z" fill="#ECA169"/>
<path id="Vector_9" d="M28.5636 6.896H4.32356C3.5129 6.896 2.85156 7.552 2.85156 8.368V8.512C2.85156 9.32266 3.50756 9.97866 4.31823 9.97866H28.5636C29.3742 9.97866 30.0302 9.32266 30.0302 8.512V8.368C30.0302 7.55733 29.3742 6.90133 28.5636 6.90133V6.896Z" fill="#EC5564"/>
<path id="Vector_10" d="M27.7904 9.97876H5.09705C3.73172 12.0321 2.95305 14.4161 2.83572 16.8748C2.71839 19.3388 3.27305 21.7814 4.43572 23.9574C5.59839 26.1281 7.33172 27.9468 9.44372 29.2108C11.5557 30.4748 13.9771 31.1468 16.4411 31.1468C18.9051 31.1468 21.3211 30.4801 23.4384 29.2108C25.5504 27.9468 27.2837 26.1281 28.4464 23.9574C29.6091 21.7868 30.1637 19.3388 30.0464 16.8748C29.9291 14.4108 29.1504 12.0268 27.7851 9.97876H27.7904Z" fill="#EC5564"/>
<path id="Vector_11" d="M4.73971 10.5599L25.0277 10.7359C25.0277 10.7359 30.3184 22.8266 21.2144 30.2826C23.7744 29.3279 25.9877 27.6372 27.5824 25.4186C29.1717 23.1999 30.0677 20.5599 30.153 17.8292C30.3184 15.0186 29.4864 12.2346 27.7904 9.98389H5.09704C4.96371 10.1652 4.84638 10.3572 4.73438 10.5546L4.73971 10.5599Z" fill="#D94453"/>
<path id="Vector_12" d="M22.5215 9.97866C22.5215 9.97866 24.7988 9.97866 24.7988 8.43733C24.7988 6.896 22.9962 6.896 22.9962 6.896H28.4948C28.8948 6.912 29.2735 7.07733 29.5508 7.36533C29.8282 7.65333 29.9828 8.03733 29.9828 8.43733C29.9828 8.83733 29.8282 9.22133 29.5508 9.50933C29.2735 9.79733 28.8948 9.96266 28.4948 9.97866H22.5215Z" fill="#D94453"/>
<path id="Vector_13" d="M21.9343 21.8081V21.7387C21.9343 21.6534 21.9343 21.5627 21.9183 21.4774V21.4187C21.9183 21.3814 21.9183 21.3441 21.9023 21.3014V21.2641L21.881 21.1681C21.769 20.6081 21.4756 20.1014 21.0436 19.7227C19.2143 18.5547 17.0703 17.9787 14.905 18.0641H14.8143V15.9094H16.681C16.8996 15.9094 17.1183 15.9254 17.337 15.9627C17.545 15.9947 17.7423 16.0534 17.9343 16.1387C18.0996 16.2134 18.2383 16.3307 18.3503 16.4747C18.457 16.6294 18.5156 16.8214 18.5103 17.0081C18.5103 17.2001 18.4676 17.3921 18.3663 17.5574C18.345 17.5894 18.3183 17.6214 18.297 17.6534C18.1156 17.8347 17.9023 17.9734 17.6623 18.0587C18.4943 18.1921 19.3103 18.4267 20.089 18.7467L20.1476 18.7147C20.281 18.6454 20.4036 18.5601 20.5103 18.4587C20.5583 18.4214 20.601 18.3787 20.6436 18.3307L20.745 18.2241C20.9476 18.0107 21.1076 17.7601 21.209 17.4881C21.3156 17.2161 21.3636 16.9227 21.3476 16.6294C21.369 16.0961 21.2196 15.5681 20.921 15.1201C20.633 14.7361 20.2596 14.4321 19.8223 14.2401C19.3476 14.0267 18.841 13.8934 18.3183 13.8347C17.769 13.7654 17.2196 13.7334 16.6703 13.7334H11.9556L11.9663 18.0107H11.945C9.70498 18.0481 7.07031 18.2667 7.07031 18.2667C7.99831 18.2667 11.945 18.5281 11.945 18.5281H11.9663V25.0027H17.2036C17.769 25.0027 18.3343 24.9494 18.889 24.8427C19.417 24.7467 19.929 24.5707 20.409 24.3201C20.8463 24.0907 21.2196 23.7601 21.5076 23.3601C21.7956 22.9334 21.945 22.4267 21.9343 21.9094V21.7974V21.8081ZM18.969 22.0907L18.9583 22.1121L18.9423 22.1441C18.8303 22.3094 18.6863 22.4481 18.5156 22.5494C18.3343 22.6561 18.1316 22.7307 17.9236 22.7681C17.705 22.8107 17.4863 22.8321 17.2676 22.8321H14.9476L14.8463 22.8214V22.5921C14.8463 21.8507 14.8676 20.1441 14.873 19.7921C14.873 19.6747 14.8676 19.5574 14.841 19.4454V19.4081L14.8196 19.3334C14.7983 19.2587 14.761 19.1894 14.713 19.1307L14.6916 19.1041L14.5263 18.9227L15.6996 19.1947C16.841 19.3974 17.897 19.9094 18.7663 20.6774C18.937 20.8641 19.049 21.0987 19.0916 21.3547C19.129 21.6054 19.0916 21.8667 18.985 22.0961V22.1067L18.969 22.0907Z" fill="white"/>
</g>
</g>
</g>
</g>
</g>
</svg>
