<svg xmlns="http://www.w3.org/2000/svg" width="35" height="35" viewBox="0 0 35 35" fill="none">
<g clip-path="url(#clip0_1344_14495)">
<circle cx="9.77069" cy="24.5001" r="9.5" fill="#ECECEC"/>
<path d="M9.63722 17.699L9.55304 17.9918V26.4893L9.63722 26.5753L13.4914 24.2438L9.63722 17.699Z" fill="#8C8C8C"/>
<path d="M9.63724 17.699L5.78302 24.2438L9.63724 26.5754V22.451V17.699Z" fill="#8C8C8C"/>
<path d="M9.63722 27.3222L9.58978 27.3814V30.4084L9.63722 30.5502L13.4937 24.9918L9.63722 27.3222Z" fill="#3C3C3B"/>
<path d="M9.63724 30.5502V27.3222L5.78302 24.9918L9.63724 30.5502Z" fill="#8C8C8C"/>
<path d="M9.6373 26.5753L13.4915 24.2437L9.6373 22.4509V26.5753Z" fill="#141414"/>
<path d="M5.78302 24.2437L9.63718 26.5753V22.4509L5.78302 24.2437Z" fill="#393939"/>
<g clip-path="url(#clip1_1344_14495)">
<circle cx="25.6384" cy="24.6385" r="9.63836" fill="#345D9D"/>
<circle cx="25.6384" cy="24.6388" r="7.32516" fill="white"/>
<path d="M25.6383 17.3136C24.1896 17.3136 22.7733 17.7432 21.5687 18.5481C20.3641 19.353 19.4252 20.497 18.8708 21.8355C18.3164 23.174 18.1713 24.6469 18.454 26.0678C18.7366 27.4887 19.4342 28.794 20.4587 29.8184C21.4831 30.8428 22.7883 31.5405 24.2093 31.8231C25.6302 32.1058 27.1031 31.9607 28.4416 31.4063C29.78 30.8519 30.9241 29.913 31.729 28.7084C32.5339 27.5038 32.9635 26.0875 32.9635 24.6387C32.9663 23.6796 32.7801 22.7293 32.4157 21.842C32.0512 20.9548 31.5155 20.1481 30.8393 19.4679C30.163 18.7877 29.3594 18.2473 28.4744 17.8777C27.5893 17.5081 26.6401 17.3164 25.6809 17.3136H25.6383ZM25.7625 24.887L24.9998 27.4588H29.0792C29.1062 27.4579 29.1332 27.4623 29.1585 27.4717C29.1838 27.4812 29.207 27.4956 29.2268 27.514C29.2466 27.5325 29.2625 27.5546 29.2737 27.5793C29.2849 27.6039 29.2911 27.6305 29.292 27.6575V27.7249L28.9373 28.9487C28.9217 29.0066 28.8868 29.0574 28.8385 29.0929C28.7901 29.1283 28.7312 29.1463 28.6713 29.1438H22.4281L23.4745 25.5788L22.3039 25.9335L22.5699 25.1176L23.7405 24.7629L25.2127 19.7612C25.2289 19.7037 25.2639 19.6532 25.3121 19.6178C25.3603 19.5825 25.419 19.5643 25.4787 19.5661H27.0573C27.0843 19.5652 27.1112 19.5696 27.1365 19.579C27.1619 19.5885 27.1851 19.6029 27.2049 19.6213C27.2246 19.6398 27.2406 19.6619 27.2518 19.6866C27.2629 19.7112 27.2692 19.7377 27.2701 19.7648V19.8322L26.0285 24.0534L27.1991 23.6987L26.9508 24.5501L25.7625 24.887Z" fill="#345D9D"/>
</g>
<circle cx="17.6384" cy="9.63846" r="9.63836" fill="#F8931A"/>
<path fill-rule="evenodd" clip-rule="evenodd" d="M21.8551 8.27466C22.0476 7.01884 21.0677 6.34374 19.7279 5.89337L20.1625 4.1922L19.1013 3.93413L18.6782 5.59048C18.3992 5.52264 18.1127 5.45864 17.828 5.39523L18.2541 3.72798L17.1936 3.46991L16.7587 5.17049C16.5277 5.11917 16.3011 5.06845 16.081 5.01506L16.0822 5.00975L14.6188 4.65318L14.3365 5.75918C14.3365 5.75918 15.1238 5.93525 15.1072 5.94617C15.537 6.05087 15.6147 6.3284 15.6017 6.54842L15.1066 8.48642L15.1048 8.4938L14.4108 11.2087C14.3582 11.3361 14.225 11.5272 13.9245 11.4546C13.9351 11.4697 13.1532 11.2668 13.1532 11.2668L12.6264 12.4521L14.0073 12.788C14.1616 12.8257 14.314 12.8645 14.4647 12.9029C14.5651 12.9284 14.6648 12.9538 14.7639 12.9785L14.3247 14.6992L15.3847 14.9573L15.8196 13.2549C16.1091 13.3316 16.3902 13.4024 16.6653 13.469L16.2318 15.1634L17.293 15.4215L17.7322 13.7041C19.5417 14.0382 20.9024 13.9035 21.4751 12.3064C21.9367 11.0205 21.4522 10.2787 20.5001 9.79504C21.1934 9.63902 21.7157 9.19397 21.8551 8.27466ZM19.7596 8.27607C19.4853 9.36155 17.9105 8.94642 17.1886 8.75611C17.123 8.73881 17.0644 8.72338 17.0145 8.71109L17.5428 6.61813C17.6034 6.63304 17.6776 6.64926 17.7617 6.66764L17.7617 6.66765C18.5092 6.8311 20.0398 7.16579 19.7596 8.27607ZM19.4313 11.5928C19.1305 12.7726 17.2379 12.2849 16.372 12.0617L16.372 12.0617C16.2941 12.0416 16.2245 12.0237 16.1651 12.0093L16.7479 9.7296C16.8202 9.7472 16.9085 9.76655 17.0086 9.78846L17.0086 9.78846C17.9042 9.98457 19.7397 10.3865 19.4313 11.5928Z" fill="white"/>
</g>
<defs>
<clipPath id="clip0_1344_14495">
<rect width="35" height="35" fill="white"/>
</clipPath>
<clipPath id="clip1_1344_14495">
<rect width="19.2767" height="19.2767" fill="white" transform="translate(16 15.0001)"/>
</clipPath>
</defs>
</svg>