<svg xmlns="http://www.w3.org/2000/svg" width="86" height="20" viewBox="0 0 86 20" fill="none"><g clip-path="url(#clip0_2229_1032)"><path d="M86.0001 20C57.4377 20 28.8752 20 0.312834 20C0.259972 20 0.206792 20 0.153931 20C0.153931 19.4489 0.153931 18.8978 0.153931 18.3468C0.279716 18.3534 0.405819 18.3658 0.531604 18.3658C28.8676 18.3665 57.2036 18.3662 85.5396 18.3665C85.6931 18.3665 85.8466 18.3744 86.0001 18.3786V20Z" fill="#B09863"></path><path d="M0.153931 1.2408C1.44331 1.23921 2.73268 1.23666 4.02206 1.23666C20.6473 1.23666 37.2726 1.23666 53.8979 1.23666H54.1322C54.0794 1.37912 54.0275 1.5025 53.9963 1.63383C53.958 1.79251 53.951 1.94356 54.0195 2.09492C54.0361 2.13149 54.0622 2.17315 54.0217 2.21194C53.9886 2.24342 53.9517 2.22561 53.9173 2.21417C53.6667 2.13117 53.4078 2.1105 53.147 2.12417C52.8317 2.14071 52.5448 2.01447 52.2451 1.95532C51.2248 1.7534 50.3399 1.97567 49.6237 2.75443C49.5355 2.85046 49.4349 2.8705 49.3129 2.8705C43.8102 2.86891 38.3072 2.86891 32.8045 2.86923C22.0217 2.86923 11.2389 2.86923 0.456133 2.86923C0.355505 2.86923 0.254877 2.86509 0.153931 2.86287V1.24143L0.153931 1.2408Z" fill="#B09863"></path><path d="M86.0001 2.86255C85.9364 2.86446 85.873 2.86859 85.8093 2.86859C76.5025 2.86891 67.1957 2.86923 57.8889 2.86923C57.7851 2.86923 57.6816 2.86923 57.5778 2.86923C57.722 2.68543 57.7949 2.48509 58.007 2.35186C58.3825 2.11559 58.6703 1.73655 58.4643 1.23603C58.5277 1.23603 58.5821 1.23603 58.6369 1.23603C67.6998 1.23603 76.7624 1.23603 85.8252 1.23666C85.8835 1.23666 85.9418 1.23953 86.0001 1.24112V2.86255Z" fill="#B09863"></path><path d="M56.1862 15.3084C56.3282 15.5154 56.3992 15.7323 56.4909 15.9393C56.518 16.0006 56.5059 16.0305 56.4534 16.0693C55.9706 16.4252 55.449 16.7098 54.8917 16.9298C54.8201 16.9581 54.7529 16.9947 54.7889 16.8455C54.8255 16.6945 54.8073 16.5466 54.6449 16.4318C54.4293 16.2798 54.236 16.0948 54.0412 15.9154C53.9444 15.8264 53.8444 15.7796 53.7148 15.807C53.4686 15.8591 53.2979 15.7733 53.1279 15.5787C52.6177 14.9936 52.1369 14.3897 51.7544 13.713C51.6841 13.5887 51.6325 13.5833 51.535 13.6799C51.329 13.8841 51.1758 14.1245 51.0351 14.3741C50.8376 14.7249 50.6265 15.0696 50.4545 15.4327C50.3507 15.6524 50.1851 15.7183 49.9778 15.7335C49.8648 15.7418 49.7498 15.7501 49.6336 15.7109C49.5193 15.6725 49.4202 15.6881 49.3632 15.8366C49.2833 16.0448 49.1464 16.2232 48.9878 16.3835C48.9273 16.4445 48.8821 16.4598 48.7996 16.4093C48.1656 16.0207 47.6134 15.5376 47.1214 14.9827C47.0915 14.9487 47.087 14.9261 47.1001 14.888C47.3991 14.0173 47.6067 13.1184 47.9185 12.2515C48.0793 11.8041 48.2379 11.3532 48.4576 10.9341C48.7305 10.4126 48.9913 9.87964 49.3747 9.4211C49.447 9.33461 49.4696 9.20518 49.5084 9.09325C49.5944 8.8449 49.6795 8.59591 49.7581 8.34534C49.7849 8.26012 49.8186 8.19938 49.9186 8.20606C50.0008 8.21146 50.0278 8.17108 50.0594 8.09381C50.1562 7.85595 50.1899 7.60283 50.2597 7.35925C50.287 7.26322 50.2651 7.20312 50.1638 7.18626C49.8651 7.13666 49.5807 7.03363 49.2897 6.95667C49.1814 6.92805 49.1069 6.87622 49.0884 6.76111C49.0741 6.67175 49.011 6.62374 48.9343 6.59734C48.5598 6.46729 48.1885 6.32674 47.8204 6.18269C47.5726 6.0857 47.3278 5.96741 47.0864 5.84911C46.9405 5.77757 46.8571 5.40202 46.9138 5.21409C47.0236 4.85031 47.2309 4.56698 47.5468 4.34979C47.9694 4.05851 48.3598 3.71985 48.8193 3.48295C48.9735 3.40345 49.1492 3.392 49.3142 3.34621C49.5569 3.2788 49.7549 3.15796 49.9269 2.97098C50.4023 2.45393 51.0042 2.22657 51.7003 2.26632C51.9996 2.28349 52.3009 2.32451 52.584 2.43899C52.7359 2.50036 52.8954 2.48986 53.0527 2.49082C53.3785 2.49273 53.6966 2.52898 53.9991 2.65999C54.0991 2.70324 54.1701 2.64186 54.2313 2.57286C54.3383 2.45202 54.3975 2.3032 54.4698 2.1617C54.4899 2.12259 54.4863 2.09047 54.4523 2.06344C54.3147 1.95437 54.3389 1.81127 54.3743 1.6704C54.4236 1.47261 54.5348 1.30503 54.6532 1.14349C54.6723 1.11774 54.7029 1.0659 54.7548 1.09452C54.8704 1.1578 54.894 1.07385 54.9385 0.99531C55.1656 0.59496 55.4079 0.194611 55.884 0.0597826C56.0814 0.00381633 56.3537 -0.0368864 56.505 0.0566027C56.6839 0.166945 56.8791 0.169807 57.0511 0.262024C57.3498 0.421974 57.5514 0.673822 57.715 0.954607C57.8306 1.15272 57.9376 1.35337 58.1004 1.51395C58.0609 1.58804 57.9698 1.52985 57.9278 1.5979C57.9688 1.66309 58.0418 1.65546 58.1137 1.66277C58.0644 1.81032 57.9325 1.79283 57.8179 1.83131C57.9746 1.90572 57.9223 1.94388 57.8039 1.9744C57.7727 1.98267 57.6877 1.98585 57.774 2.04913C57.7759 2.05072 57.766 2.07966 57.7564 2.08315C57.5297 2.16901 57.4759 2.39797 57.3498 2.56777C56.9938 3.04635 56.6085 3.49471 56.0862 3.80571C55.9521 3.88552 55.8228 3.89952 55.6767 3.85054C55.4977 3.79076 55.3347 3.69537 55.1678 3.61332C55.1306 3.66961 55.1627 3.6801 55.186 3.70173C55.3465 3.85277 55.534 3.96121 55.7343 4.0477C55.8846 4.11257 56.0235 4.06614 56.1486 3.98124C56.2371 3.92114 56.2878 3.94562 56.3059 4.03848C56.3591 4.30909 56.5527 4.44996 56.7677 4.59178C57.3243 4.95874 57.6377 5.47039 57.6256 6.15184C57.623 6.30161 57.6641 6.40878 57.7896 6.50163C58.1309 6.75475 58.2739 7.11917 58.3315 7.52651C58.3471 7.63622 58.3691 7.74529 58.3959 7.85309C58.4143 7.92782 58.4548 7.95612 58.5344 7.90556C58.763 7.76119 58.9977 7.627 59.2483 7.5227C59.2713 7.51316 59.3041 7.4944 59.3069 7.47563C59.3515 7.20566 59.5961 7.07974 59.7378 6.88036C59.8368 6.74108 59.8776 6.60339 59.9094 6.43294C59.9486 6.22243 59.8505 6.08633 59.7903 5.92321C59.7196 5.73178 59.6913 5.54352 59.8078 5.35941C59.8356 5.31553 59.8438 5.26433 59.8282 5.22172C59.7649 5.04905 59.8664 4.94952 59.9849 4.86303C60.4374 4.53295 61.2641 4.73837 61.4921 5.24493C61.6093 5.50505 61.7105 5.77375 61.7965 6.04563C61.8729 6.2873 61.8596 6.52453 61.6695 6.72772C61.5793 6.82375 61.5096 6.93855 61.4271 7.04221C61.3351 7.15828 61.2539 7.28961 61.1418 7.38246C60.8568 7.61873 60.5667 7.84546 60.3654 8.16535C60.3084 8.25598 60.2008 8.31799 60.0992 8.32022C59.9585 8.32308 59.8951 8.40703 59.8203 8.4967C59.4919 8.89006 59.1111 9.22426 58.6882 9.51395C58.5182 9.63034 58.3519 9.62811 58.1793 9.54225C57.9157 9.41092 57.7214 9.20487 57.5641 8.95906C57.4046 8.70912 57.2183 8.47476 57.003 8.27506C56.5693 7.8728 56.1967 7.43779 56.0353 6.85428C56.0117 6.76874 55.9671 6.77574 55.8999 6.81676C55.2946 7.18626 54.7666 7.63622 54.3867 8.2439C54.1994 8.54345 53.9934 8.8325 53.8988 9.1807C53.8861 9.22744 53.8469 9.27641 53.91 9.29867C54.0845 9.36068 54.0045 9.48692 53.9889 9.59218C53.9663 9.74545 53.93 9.89681 53.9026 10.0494C53.8867 10.1382 53.9036 10.2027 54.0023 10.2476C54.1717 10.3245 54.2895 10.459 54.3644 10.632C54.4813 10.902 54.6077 11.1678 54.7239 11.4381C55.0615 12.2223 55.5156 12.9482 55.8674 13.7257C56.0703 14.1744 56.2779 14.6215 56.4951 15.0635C56.5556 15.1866 56.5155 15.2171 56.4069 15.2403C56.3362 15.2553 56.2684 15.2836 56.1865 15.31L56.1862 15.3084ZM49.0422 5.09643C49.1941 5.25288 49.34 5.4052 49.4887 5.55465C49.5212 5.58709 49.5559 5.63765 49.6059 5.62684C49.7865 5.58741 49.9555 5.65069 50.117 5.70125C50.3424 5.77216 50.5297 5.75117 50.715 5.60363C51.0589 5.3292 51.4529 5.28659 51.8697 5.38167C51.9754 5.40584 52.049 5.45385 52.0968 5.57278C52.141 5.68312 52.1022 5.8224 52.1964 5.90413C52.3429 6.031 52.3904 6.18141 52.3776 6.36935C52.3706 6.47428 52.3588 6.57763 52.34 6.6797C52.2643 7.08641 52.1891 7.49471 51.7729 7.71381C51.8086 7.76246 51.8372 7.75547 51.8853 7.73829C52.1493 7.6448 52.3015 7.4432 52.3824 7.1958C52.49 6.86636 52.6015 6.53534 52.5744 6.17601C52.5645 6.04531 52.5343 5.93593 52.4403 5.85102C52.3728 5.78997 52.3541 5.7181 52.3302 5.63479C52.2814 5.46466 52.2598 5.26115 52.0327 5.21695C51.6114 5.13523 51.1921 5.0818 50.8016 5.33461C50.7411 5.37372 50.6736 5.40266 50.595 5.44399C50.5803 5.13173 50.6644 4.83759 50.615 4.53899C50.5405 4.54535 50.5106 4.60132 50.4724 4.63948C50.1835 4.92726 49.8466 5.08594 49.4292 5.05223C49.2992 5.04174 49.1668 5.04174 49.0422 5.09611V5.09643Z" fill="white"></path><path d="M29.3271 7.02313C29.359 7.56181 29.3787 8.10112 29.379 8.64075C29.3794 10.2247 29.3889 11.8086 29.3695 13.3922C29.3625 13.9572 29.3459 14.5268 29.1975 15.0823C29.0679 15.5679 28.767 15.8967 28.3212 16.0973C27.9575 16.2608 27.569 16.3164 27.1703 16.3495C25.9634 16.4493 24.7556 16.3762 23.5487 16.3994C23.1882 16.4064 22.8271 16.394 22.4666 16.4035C22.3319 16.407 22.3023 16.3644 22.3023 16.2359C22.3058 13.1635 22.3052 10.0911 22.3048 7.019C22.3048 6.28285 22.308 5.54639 22.3017 4.81024C22.3007 4.68781 22.3357 4.66396 22.4513 4.6646C23.4697 4.67191 24.4887 4.65824 25.5068 4.68177C26.0297 4.69385 26.5535 4.72057 27.0754 4.79084C27.3827 4.83218 27.683 4.88783 27.9671 4.99881C28.5505 5.22649 28.9676 5.62048 29.1714 6.23388C29.2491 6.46729 29.2889 6.69592 29.2924 6.93664C29.2873 6.97225 29.3084 6.99738 29.3275 7.02345L29.3271 7.02313ZM25.3622 10.5109C25.3622 11.7183 25.3622 12.9257 25.3622 14.1334C25.3622 14.3144 25.4529 14.3932 25.6342 14.3697C25.701 14.3608 25.7676 14.3487 25.8338 14.335C26.0446 14.2908 26.179 14.1642 26.2287 13.955C26.3061 13.6303 26.3112 13.2968 26.3137 12.9673C26.3249 11.5958 26.322 10.224 26.3223 8.85253C26.3223 8.28333 26.3357 7.71413 26.2653 7.14683C26.2389 6.93219 26.0988 6.77701 25.8908 6.73503C25.7555 6.708 25.6192 6.72454 25.487 6.7026C25.3673 6.68288 25.359 6.72263 25.3593 6.82471C25.3628 8.05342 25.3616 9.28214 25.3619 10.5109H25.3622Z" fill="white"></path><path d="M68.3593 10.0905C68.6182 10.1083 68.8099 10.2002 69.0061 10.2749C69.5955 10.4994 69.9353 10.9207 70.0547 11.5478C70.2142 12.386 70.1716 13.2281 70.1423 14.0688C70.1273 14.5004 70.0897 14.9395 69.9139 15.3472C69.7219 15.793 69.3968 16.0948 68.922 16.2115C68.5672 16.2986 68.2036 16.3256 67.8374 16.3498C66.2802 16.4528 64.722 16.3724 63.1645 16.4013C63.0763 16.4029 63.0337 16.3787 63.0477 16.2862C63.0499 16.2706 63.048 16.2544 63.048 16.2385C63.048 12.4404 63.0489 8.64234 63.0448 4.84426C63.0448 4.69672 63.084 4.66237 63.2276 4.66365C64.3947 4.67287 65.5618 4.67128 66.7285 4.67827C67.1377 4.68082 67.5444 4.73965 67.945 4.81056C68.7803 4.95842 69.3885 5.41442 69.6933 6.22148C69.8184 6.55251 69.855 6.90484 69.8948 7.25717C69.9375 7.63654 69.9598 8.01336 69.927 8.39208C69.9095 8.59337 69.8783 8.79498 69.8327 8.99181C69.7015 9.5572 69.2611 9.78965 68.7624 9.94483C68.6421 9.98235 68.5217 10.0164 68.3593 10.0901V10.0905ZM66.1057 12.7536C66.1057 13.2516 66.1079 13.7496 66.1038 14.2472C66.1031 14.3395 66.1191 14.3748 66.2235 14.3751C66.4267 14.3757 66.6161 14.3216 66.8047 14.2612C66.8916 14.2332 66.9537 14.1681 66.99 14.0771C67.0591 13.9048 67.0916 13.7251 67.0944 13.5423C67.1021 13.0605 67.1002 12.5784 67.1049 12.0964C67.1069 11.9005 67.0731 11.7081 67.0444 11.5163C67.0215 11.3631 66.9464 11.2454 66.7712 11.2092C66.5929 11.172 66.4162 11.1357 66.2331 11.1268C66.1238 11.1217 66.1025 11.1596 66.1034 11.26C66.1082 11.758 66.1057 12.2557 66.1057 12.7536ZM66.1057 7.97838C66.1057 8.37014 66.1085 8.76159 66.1034 9.15335C66.1022 9.24907 66.1251 9.28881 66.2264 9.27927C66.3579 9.26656 66.4916 9.2726 66.6225 9.25543C66.8531 9.22553 66.9871 9.11678 67.0199 8.93489C67.0486 8.77685 67.0741 8.6169 67.0839 8.45695C67.1097 8.03593 67.1288 7.61396 67.053 7.19548C67.018 7.00183 66.9419 6.81835 66.7391 6.75157C66.5763 6.69815 66.4006 6.68861 66.227 6.67843C66.1257 6.67271 66.1022 6.70769 66.1034 6.80372C66.1085 7.19517 66.1057 7.58693 66.1057 7.97838Z" fill="white"></path><path d="M39.2339 11.2263C39.2345 12.906 39.2339 14.5856 39.2384 16.2652C39.2384 16.3832 39.1963 16.4026 39.0922 16.4023C38.3388 16.3984 37.585 16.3962 36.8319 16.4038C36.6959 16.4051 36.68 16.3558 36.68 16.2404C36.6829 14.3223 36.6822 12.4042 36.6822 10.4864C36.6822 8.60545 36.6841 6.72454 36.6787 4.84363C36.6784 4.6964 36.7185 4.66269 36.8615 4.66396C37.6095 4.6716 38.3579 4.66842 39.1062 4.66619C39.1938 4.66619 39.2485 4.67573 39.2794 4.77717C39.4141 5.21663 39.567 5.65069 39.7001 6.09079C39.8358 6.53979 39.981 6.98625 40.1252 7.43175C40.2704 7.88012 40.4166 8.3288 40.5701 8.77494C40.6806 9.09548 40.7796 9.41983 40.8847 9.74195C40.8904 9.75976 40.9035 9.77502 40.9455 9.78965C40.9455 9.73623 40.9455 9.68249 40.9455 9.62906C40.9455 8.02894 40.9468 6.42881 40.942 4.82868C40.9417 4.69767 40.9742 4.66269 41.107 4.66396C41.8445 4.67096 42.5823 4.67255 43.3195 4.66333C43.4733 4.66142 43.509 4.6999 43.509 4.85221C43.5039 7.69219 43.5055 10.5322 43.5055 13.3721C43.5055 14.2676 43.5055 15.163 43.5055 16.0585C43.5055 16.2864 43.3911 16.4004 43.1622 16.4004C42.4725 16.4004 41.7827 16.4004 41.0926 16.4004C40.7981 16.4004 40.7949 16.3997 40.7233 16.1196C40.6233 15.7294 40.4984 15.3465 40.3854 14.9605C40.2867 14.6237 40.1892 14.286 40.0848 13.9509C39.9689 13.5788 39.8587 13.2045 39.7507 12.8309C39.6259 12.3994 39.4826 11.9723 39.3762 11.5357C39.3504 11.4295 39.2782 11.3376 39.2839 11.2228C39.2915 11.1831 39.2829 11.1408 39.2387 11.1472C39.2135 11.151 39.2189 11.198 39.2345 11.227L39.2339 11.2263Z" fill="white"></path><path d="M8.49457 13.5181C8.42324 12.0512 8.45699 10.5837 8.45412 9.11615C8.45317 8.67128 8.45413 8.22609 8.46654 7.78122C8.48087 7.28007 8.50221 6.77319 8.70124 6.30607C8.94039 5.74545 9.30405 5.27514 9.8384 4.95651C10.3479 4.65252 10.8979 4.48875 11.4924 4.44678C11.8312 4.42293 12.1665 4.41625 12.5034 4.4525C13.5397 4.5638 14.4396 4.92185 15.0223 5.84816C15.2354 6.18682 15.357 6.55569 15.4115 6.95413C15.4624 7.32554 15.4573 7.69759 15.4755 8.06964C15.5608 9.7941 15.5283 11.5192 15.4847 13.2433C15.472 13.7448 15.4599 14.2549 15.2659 14.7328C14.8902 15.6578 14.2078 16.2188 13.2438 16.477C12.656 16.6347 12.0621 16.6764 11.4672 16.6239C10.3626 16.5266 9.43907 16.0776 8.86205 15.0883C8.67258 14.7637 8.54393 14.4021 8.52291 14.0113C8.51495 13.8656 8.49393 13.7197 8.49711 13.5728C8.51813 13.5537 8.51686 13.5353 8.49457 13.5181ZM11.508 10.8676H11.5074C11.5074 11.4928 11.5032 12.1177 11.5086 12.7428C11.5131 13.2596 11.4908 13.7772 11.5526 14.2927C11.5749 14.4781 11.7175 14.6495 11.8949 14.6559C12.0872 14.6625 12.3178 14.6059 12.3624 14.3817C12.4101 14.1407 12.4302 13.8978 12.4468 13.6555C12.4697 13.3232 12.4633 12.9886 12.4624 12.6551C12.4566 10.8285 12.4802 9.00199 12.4461 7.17577C12.4433 7.02441 12.4245 6.87145 12.3933 6.72327C12.342 6.48032 12.2067 6.40178 11.9162 6.42499C11.742 6.43867 11.5736 6.60879 11.5542 6.78814C11.5223 7.0826 11.4968 7.37483 11.5016 7.67438C11.5185 8.73869 11.5083 9.80364 11.5083 10.8683L11.508 10.8676Z" fill="white"></path><path d="M74.5975 16.6366C73.903 16.6741 73.2505 16.4986 72.6522 16.1739C72.1306 15.8909 71.7465 15.4502 71.4892 14.9071C71.3275 14.5652 71.2437 14.21 71.2176 13.8316C71.2026 13.6141 71.1717 13.3922 71.173 13.1772C71.1749 12.8455 71.165 12.5145 71.1647 12.1832C71.1644 10.9859 71.1555 9.78901 71.1635 8.5921C71.167 8.07536 71.1619 7.55322 71.2342 7.0438C71.4013 5.86851 72.0612 5.06781 73.1846 4.65379C73.5317 4.52596 73.8928 4.49638 74.2546 4.44805C74.6679 4.39272 75.0755 4.4277 75.4806 4.48653C76.3117 4.60704 77.0477 4.9244 77.5696 5.61539C77.8966 6.04818 78.1011 6.52834 78.1421 7.08355C78.1784 7.57262 78.1848 8.06105 78.2033 8.54981C78.2545 9.9089 78.2313 11.268 78.2208 12.6271C78.2179 13.0169 78.1976 13.4074 78.1683 13.796C78.0791 14.9777 77.5234 15.8458 76.4184 16.3256C76.056 16.483 75.6739 16.5705 75.2758 16.6051C75.0491 16.6249 74.8236 16.635 74.5979 16.6373L74.5975 16.6366ZM74.2234 10.7945C74.2234 11.2607 74.2113 11.7275 74.2262 12.193C74.2489 12.9044 74.1533 13.6183 74.2797 14.3274C74.31 14.4965 74.4536 14.6492 74.6211 14.6597C74.8724 14.6749 75.0306 14.5716 75.0787 14.3681C75.1478 14.0758 75.1647 13.7769 75.1663 13.4806C75.1749 11.5043 75.1758 9.52794 75.1714 7.55195C75.1707 7.27594 75.1284 6.99992 75.1064 6.7239C75.0934 6.55982 74.9211 6.43104 74.7752 6.42086C74.3816 6.39288 74.303 6.62596 74.2511 6.8953C74.2043 7.13856 74.2199 7.38501 74.2211 7.63145C74.2266 8.6859 74.2234 9.74004 74.2234 10.7945Z" fill="white"></path><path d="M5.1287 15.6133C5.01916 15.7914 4.8921 15.9536 4.74179 16.0967C4.43768 16.3857 4.07243 16.5314 3.66068 16.6045C3.30339 16.6681 2.94546 16.6614 2.606 16.5851C2.14648 16.4821 1.72168 16.27 1.34846 15.9679C0.838637 15.5548 0.533888 15.0203 0.384538 14.3891C0.289005 13.9846 0.250792 13.5696 0.256205 13.1591C0.26958 12.1386 0.255887 11.1188 0.260664 10.0984C0.263211 9.55338 0.266077 9.00803 0.252384 8.46268C0.237417 7.86581 0.287094 7.26958 0.382946 6.68161C0.461283 6.19922 0.687059 5.77852 1.04244 5.43096C1.48094 5.0023 1.98312 4.69226 2.58498 4.54567C3.14002 4.41021 3.70176 4.38922 4.26445 4.45059C4.6504 4.49288 5.03731 4.55489 5.40097 4.70403C5.89838 4.9085 6.34101 5.19374 6.69735 5.60267C6.96675 5.91208 7.11515 6.27458 7.19221 6.67366C7.26959 7.07369 7.29793 7.47659 7.32946 7.88203C7.35462 8.20383 7.34124 8.52437 7.3613 8.84458C7.36927 8.96955 7.32405 8.99149 7.20909 8.99086C6.28592 8.98641 5.36244 8.98672 4.43927 8.99086C4.32686 8.99149 4.29629 8.95906 4.29756 8.8484C4.30202 8.37682 4.30362 7.90524 4.29311 7.43398C4.28769 7.19835 4.2689 6.96081 4.22942 6.72867C4.1877 6.48319 4.05077 6.40973 3.73933 6.42309C3.54604 6.43135 3.40083 6.56745 3.37058 6.77033C3.32377 7.08482 3.31676 7.39963 3.31835 7.71826C3.32695 9.62557 3.32122 11.5329 3.32408 13.4405C3.3244 13.7028 3.32918 13.9658 3.36994 14.2266C3.42535 14.5827 3.70367 14.7462 4.03676 14.6161C4.21604 14.5461 4.28897 14.3884 4.31603 14.2266C4.36093 13.9595 4.38514 13.6863 4.39182 13.4154C4.40361 12.9546 4.38991 12.4935 4.39851 12.0328C4.40106 11.903 4.35998 11.8687 4.23802 11.8798C4.12242 11.8903 4.0046 11.8776 3.88805 11.883C3.80748 11.8865 3.77787 11.8633 3.7785 11.7771C3.78232 11.2527 3.78169 10.728 3.7785 10.2037C3.77787 10.1226 3.7992 10.0946 3.88423 10.0949C5.00387 10.0975 6.12352 10.0987 7.24284 10.0936C7.37054 10.093 7.35939 10.1588 7.35939 10.2412C7.35876 11.5764 7.35907 12.9117 7.35907 14.2466C7.35907 14.9141 7.35621 15.5818 7.36162 16.2493C7.36258 16.3647 7.33806 16.4042 7.21418 16.4026C6.66232 16.3956 6.11046 16.3975 5.5586 16.4013C5.45797 16.4019 5.41562 16.3781 5.39078 16.2693C5.34874 16.0846 5.27296 15.9075 5.21373 15.7265C5.19844 15.6804 5.17774 15.6416 5.1287 15.6124V15.6133Z" fill="white"></path><path d="M30.5089 10.5268C30.5089 8.63026 30.5108 6.73376 30.5054 4.83727C30.5051 4.69481 30.5414 4.66365 30.6805 4.66428C32.2667 4.66969 33.8532 4.67001 35.4396 4.66365C35.5855 4.66301 35.61 4.70562 35.6087 4.83822C35.6021 5.51618 35.6027 6.19445 35.6081 6.87241C35.6091 6.98975 35.581 7.02441 35.4594 7.02282C34.8811 7.01614 34.3028 7.02282 33.7245 7.01773C33.614 7.01677 33.5662 7.03299 33.5675 7.16114C33.5745 7.8073 33.5736 8.45377 33.5682 9.09993C33.5672 9.21409 33.6029 9.23984 33.7121 9.23889C34.2531 9.23349 34.7945 9.23953 35.3355 9.23476C35.4425 9.2338 35.4804 9.25702 35.4791 9.37308C35.4734 10.0246 35.4728 10.6762 35.4798 11.3278C35.481 11.4537 35.4384 11.4737 35.3256 11.4725C34.7846 11.467 34.2433 11.4731 33.7022 11.468C33.5975 11.467 33.5678 11.4953 33.5682 11.6003C33.5726 12.3736 33.5729 13.1473 33.5682 13.9207C33.5675 14.031 33.6083 14.0501 33.707 14.0494C34.3595 14.0456 35.0123 14.0494 35.6648 14.0453C35.7718 14.0447 35.81 14.0682 35.809 14.1833C35.8036 14.8772 35.8033 15.5714 35.809 16.2652C35.81 16.3822 35.7705 16.4026 35.6645 16.4023C33.9933 16.3991 32.3221 16.3978 30.6509 16.4042C30.5012 16.4048 30.5073 16.3352 30.5073 16.2321C30.5086 14.3302 30.5082 12.4283 30.5086 10.5268H30.5089Z" fill="white"></path><path d="M78.6575 4.66746C78.7107 4.66746 78.7581 4.66746 78.8055 4.66746C79.6491 4.66746 80.493 4.66778 81.3365 4.66651C81.4209 4.66651 81.4709 4.66492 81.4887 4.78194C81.5473 5.16416 81.6314 5.54225 81.7018 5.92289C81.7617 6.24692 81.8199 6.57159 81.8718 6.89689C81.9202 7.1993 81.9753 7.50075 82.0269 7.80221C82.0855 8.14596 82.1021 8.49511 82.1772 8.83568C82.1957 8.91899 82.1587 9.0093 82.2288 9.09166C82.2657 8.87511 82.303 8.65888 82.339 8.44232C82.3985 8.08363 82.4638 7.72557 82.5141 7.36561C82.5597 7.04062 82.646 6.72422 82.6963 6.39987C82.7319 6.1706 82.7893 5.9426 82.8367 5.71365C82.8937 5.43859 82.9587 5.16512 83.0049 4.88815C83.0377 4.69036 83.0491 4.66714 83.244 4.66714C84.0611 4.66714 84.8783 4.66714 85.6954 4.66714H85.8661C85.6986 5.25543 85.5352 5.83035 85.3492 6.39987C85.2585 6.67811 85.19 6.96621 85.1075 7.24827C84.884 8.01145 84.6557 8.77335 84.4292 9.53557C84.2821 10.0307 84.135 10.5258 83.9873 11.0209C83.8854 11.3627 83.7838 11.7046 83.68 12.0458C83.6567 12.1227 83.6475 12.1997 83.6478 12.2801C83.6487 13.5995 83.6465 14.9188 83.6513 16.2379C83.6519 16.3689 83.6188 16.4042 83.486 16.4032C82.6476 16.3969 81.8094 16.3975 80.971 16.4026C80.8474 16.4032 80.8114 16.373 80.8121 16.2452C80.8175 15.053 80.8089 13.8609 80.8191 12.6691C80.8222 12.3081 80.7662 11.9663 80.6582 11.6232C80.5003 11.1208 80.3716 10.6091 80.2271 10.1026C79.9984 9.3009 79.7672 8.5002 79.5373 7.69918C79.3026 6.88163 79.0689 6.06376 78.8336 5.2462C78.7788 5.05636 78.7186 4.86843 78.6575 4.66714V4.66746Z" fill="white"></path><path d="M16.6496 10.6597C16.6496 8.81628 16.6489 6.97257 16.6515 5.12918C16.6515 5.00739 16.6152 4.89037 16.641 4.76254C16.6591 4.67223 16.6906 4.66651 16.7601 4.66651C17.6992 4.66746 18.6382 4.66969 19.577 4.66428C19.6987 4.66365 19.7098 4.71007 19.7095 4.81151C19.7063 5.93974 19.7076 7.06829 19.7076 8.19652C19.7076 10.0876 19.7095 11.979 19.7041 13.8701C19.7038 14.0192 19.7448 14.0529 19.8878 14.0507C20.4024 14.0421 20.917 14.0498 21.4316 14.0453C21.5323 14.0444 21.5676 14.0669 21.5666 14.1754C21.5615 14.8746 21.5612 15.5739 21.5666 16.2732C21.5676 16.3857 21.5268 16.4023 21.4291 16.4019C19.8853 16.3994 18.3415 16.3981 16.7976 16.4035C16.6594 16.4042 16.6473 16.3504 16.6477 16.2379C16.6505 14.3786 16.6496 12.519 16.6496 10.6597Z" fill="white"></path><path d="M46.8105 14.5757C46.5217 14.1884 46.3026 13.7976 46.1112 13.3896C45.9014 12.9432 45.7307 12.4773 45.638 11.9981C45.3301 10.4059 45.4992 8.86716 46.2466 7.40981C46.4431 7.02695 46.6727 6.66508 46.936 6.32451C46.9889 6.25582 47.0242 6.23643 47.128 6.27331C47.4121 6.37443 47.6713 6.52453 47.9477 6.63678C48.0783 6.68988 48.0607 6.72232 47.991 6.80436C47.5968 7.2683 47.2796 7.77932 47.0484 8.34343C46.6863 9.22649 46.5526 10.141 46.637 11.0931C46.6965 11.765 46.8937 12.394 47.1697 13.0023C47.2143 13.1002 47.2226 13.1861 47.1904 13.2904C47.0618 13.707 46.9424 14.1264 46.8105 14.5757Z" fill="#B09863"></path><path d="M59.1884 9.67454C59.2107 9.9814 59.2566 10.2835 59.2502 10.5843C59.2078 12.5857 58.4675 14.2797 56.9838 15.6378C56.9456 15.6728 56.894 15.7866 56.8342 15.6998C56.7915 15.6378 56.6705 15.537 56.8284 15.4375C56.952 15.3596 56.9545 15.2244 56.9077 15.0982C56.838 14.9109 56.7635 14.7252 56.6797 14.5439C56.6377 14.4533 56.6492 14.3929 56.7154 14.3197C57.1899 13.7954 57.5341 13.1906 57.7796 12.532C57.9373 12.1091 58.0379 11.6709 58.0834 11.2174C58.1051 11.0034 58.1468 10.7891 58.1341 10.5751C58.1235 10.4021 58.1057 10.2294 58.107 10.0555C58.1076 9.97059 58.1372 9.93847 58.2207 9.96041C58.5149 10.038 58.7732 9.97218 58.9993 9.76962C59.0493 9.72478 59.1091 9.69139 59.1884 9.67517V9.67454Z" fill="#B09863"></path><path d="M52.382 17.4049C51.3124 17.4122 50.365 17.1772 49.4578 16.7638C49.2915 16.6881 49.2941 16.6878 49.4154 16.5434C49.4731 16.4748 49.5425 16.4064 49.5718 16.3256C49.6307 16.1638 49.7441 16.1568 49.8915 16.1428C50.1064 16.1224 50.3364 16.165 50.5344 16.0369C50.5812 16.0067 50.6265 16.0283 50.6714 16.0436C51.4379 16.3008 52.2282 16.3298 53.024 16.2754C53.2374 16.2608 53.4479 16.2057 53.665 16.2134C53.7421 16.2162 53.8064 16.2283 53.8682 16.2808C54.0293 16.4182 54.1953 16.5504 54.3624 16.6802C54.4274 16.7304 54.4303 16.7737 54.4245 16.8605C54.4089 17.0945 54.2714 17.1568 54.0777 17.2017C53.4969 17.3362 52.9116 17.4205 52.382 17.4049Z" fill="#B09863"></path><path d="M29.3272 7.02313C29.3084 6.99706 29.2871 6.97194 29.2921 6.93632C29.3237 6.95731 29.359 6.97671 29.3272 7.02313Z" fill="#8F7344"></path><path d="M39.2339 11.2263C39.2183 11.1977 39.2129 11.1503 39.2381 11.1465C39.2823 11.1402 39.2912 11.1824 39.2833 11.2222C39.2667 11.2235 39.2502 11.2247 39.2339 11.2263Z" fill="#8F7344"></path><path d="M8.49453 13.5181C8.51682 13.5353 8.51777 13.5537 8.49707 13.5728C8.47733 13.5553 8.47829 13.5372 8.49453 13.5181Z" fill="#8F7344"></path></g><defs><clipPath id="clip0_2229_1032"><rect width="85.8462" height="20" fill="white" transform="translate(0.153931)"></rect></clipPath></defs></svg>