<svg width="74" height="24" viewBox="0 0 74 24" fill="none" xmlns="http://www.w3.org/2000/svg">
<g clip-path="url(#clip0_2489_3487)">
<path d="M0.137817 16.8905V3.57385H3.78923V17.2062H10.2396V20.6149H2.25529L0.819328 18.8382C0.332146 18.2051 0.137817 17.621 0.137817 16.8905ZM12.2123 17.8393L16.156 3.57494H20.3431C21.1226 3.57494 21.6081 3.94074 21.828 4.71914L25.4549 17.8393C25.6248 18.4234 25.6493 18.8126 25.6493 19.567V20.6138H22.4121L21.1215 15.429L15.8877 18.106L15.2552 20.6138H12.018V19.567C12.018 18.8126 12.0419 18.4234 12.2123 17.8393ZM20.9511 14.7725L19.028 6.98304H18.6382L16.7151 14.7725H20.9511ZM27.3041 16.8905V3.57385H30.9555V17.2062H37.407V20.6149H29.4232L27.9861 18.8382C27.4995 18.2056 27.3057 17.6216 27.3057 16.8905H27.3041ZM39.4749 3.57603H43.1263V20.6154H39.4749V3.57603ZM45.609 15.2053V8.98457C45.609 5.35765 47.5812 3.38551 51.2081 3.38551H52.8063C56.3847 3.38551 58.4048 5.21177 58.4048 8.44894H54.7539V7.76743C54.7539 7.13491 54.4126 6.79361 53.7795 6.79361H50.2343C49.6018 6.79361 49.2605 7.13491 49.2605 7.76797V16.4229C49.2605 17.056 49.6018 17.3973 50.2343 17.3973H53.7801C54.4126 17.3973 54.7539 17.056 54.7539 16.4229V14.2815H52.2222V10.8729H56.2873L57.7238 12.6496C58.2105 13.2576 58.4048 13.8177 58.4048 14.5972V15.2053C58.4048 18.8322 56.4332 20.8043 52.8063 20.8043H51.2076C47.5806 20.8043 45.6085 18.8322 45.6085 15.2053H45.609ZM59.7008 17.8393L63.6446 3.57494H67.8316C68.6111 3.57494 69.0967 3.94074 69.3166 4.71914L72.9435 17.8393C73.1139 18.4234 73.1378 18.8126 73.1378 19.567V20.6138H69.9006L68.61 15.429L63.3768 18.106L62.7437 20.6138H59.5065V19.567C59.5065 18.8126 59.531 18.4234 59.7008 17.8393ZM68.4402 14.7725L66.5165 6.98304H66.1267L64.2036 14.7725H68.4402Z" fill="white"/>
</g>
<defs>
<clipPath id="clip0_2489_3487">
<rect width="73" height="23.229" fill="white" transform="translate(0.137817 0.385513)"/>
</clipPath>
</defs>
</svg>
