<svg xmlns="http://www.w3.org/2000/svg" width="60" height="16" viewBox="0 0 60 16" fill="none"><path d="M37.5257 15.9317C37.5818 15.7709 37.6254 15.641 37.6753 15.5142C38.8726 12.456 40.073 9.40079 41.261 6.34251C41.3576 6.09204 41.4855 6.01782 41.7443 6.02092C45.6667 6.03329 49.5891 6.03638 53.5146 6.03638C53.6237 6.03638 53.8014 6.02092 53.8295 5.95907C54.0758 5.40246 54.3003 4.83348 54.556 4.19647H42.1621C42.6641 2.81421 43.0663 1.44742 44.3072 0.553751C44.7749 0.216692 45.2676 0.0156933 45.8537 0.0156933C49.9071 0.0218779 53.9605 0.0497085 58.0138 0.000231882C59.5104 -0.0183218 60.0873 1.07944 59.9158 2.24833C59.8721 2.539 59.7848 2.82658 59.6788 3.1018C58.0388 7.2702 56.3862 11.4324 54.7524 15.6008C54.6339 15.907 54.4718 16.0059 54.1475 15.9997C52.9253 15.9812 51.7062 15.9935 50.4839 15.9874C50.3062 15.9874 50.1285 15.9626 49.8946 15.9441C50.6554 14.0207 51.3975 12.1498 52.1396 10.279C49.9975 10.279 47.8586 10.2728 45.7228 10.2914C45.5918 10.2914 45.3954 10.4491 45.3424 10.5789C44.672 12.2642 44.0141 13.9557 43.3718 15.6503C43.2783 15.8946 43.1692 15.9874 42.901 15.9843C41.2111 15.975 39.5243 15.9843 37.8343 15.9843C37.7501 15.9843 37.666 15.9564 37.535 15.9317H37.5257Z" fill="white"></path><path d="M19.1327 11.7479C18.8895 12.3757 18.6743 12.9477 18.4498 13.5167C18.1723 14.2249 17.8792 14.9237 17.6142 15.6349C17.5176 15.8978 17.3585 15.9782 17.0873 15.9782C11.9177 15.972 6.75122 15.972 1.58163 15.9689C1.195 15.9689 0.808372 15.9689 0.353149 15.9689C0.418627 15.7803 0.456042 15.6504 0.50593 15.5236C2.08986 11.5253 3.67378 7.53005 5.25771 3.53482C5.66616 2.50508 6.08397 1.48154 6.47995 0.448712C6.61091 0.114745 6.78863 -0.00276172 7.16902 0.00342285C8.69995 0.0343457 10.234 0.015792 11.7649 0.015792C11.8896 0.015792 12.0175 0.015792 12.2232 0.015792C10.6643 3.95537 9.13334 7.8331 7.58371 11.7479H19.1327Z" fill="white"></path><path d="M35.7921 6.03329C35.3587 7.15269 34.9533 8.20407 34.5449 9.25545C34.5168 9.32657 34.4825 9.3946 34.4513 9.46573C34.0959 10.2821 34.0959 10.279 33.1792 10.2759C31.1151 10.2697 29.051 10.2635 26.9869 10.2759C26.8497 10.2759 26.6377 10.3965 26.5909 10.514C25.9954 11.9921 25.4342 13.4857 24.8449 14.9669C24.4396 15.9874 24.4271 15.9843 23.3296 15.9874C21.9265 15.9874 20.5265 15.9874 19.1234 15.9874C19.0236 15.9874 18.927 15.9626 18.7711 15.9441C19.0236 15.2761 19.2606 14.6422 19.5038 14.0145C20.4111 11.6767 21.3278 9.34203 22.2289 7.00117C22.5968 6.04256 22.5844 6.03329 23.6039 6.03329C27.6386 6.03329 31.6732 6.03329 35.7921 6.03329Z" fill="white"></path><path d="M42.081 0.0156933C41.526 1.38558 41.0053 2.69671 40.4534 3.99856C40.4067 4.10988 40.1728 4.20265 40.0263 4.20265C37.5849 4.21811 35.1466 4.21502 32.7053 4.21811C29.7588 4.21811 26.8123 4.22121 23.8658 4.22121C23.7131 4.22121 23.5634 4.20265 23.3888 4.19028C23.8596 2.58848 24.4801 1.12892 26.0796 0.383676C26.5348 0.1734 27.068 0.034247 27.57 0.0311548C32.1253 0.00332417 36.6838 0.0156933 41.2392 0.0156933C41.4948 0.0156933 41.7536 0.0156933 42.0779 0.0156933H42.081Z" fill="white"></path></svg>