<svg width="35" height="35" viewBox="0 0 35 36" fill="none" xmlns="http://www.w3.org/2000/svg">
<g clip-path="url(#clip0_358_5786)">
<path d="M21.2847 3.63666H17.9706V7.92515H21.2847V3.63666Z" fill="#D94453"/>
<path d="M32.2262 9.26105L29.8828 6.927L26.5799 10.2167L28.9233 12.5508L32.2262 9.26105Z" fill="#D94453"/>
<path d="M29.7245 4.75456L28.5528 5.92158C28.2292 6.24385 28.2292 6.76634 28.5528 7.08861L32.0679 10.5897C32.3915 10.9119 32.9161 10.9119 33.2396 10.5897L34.4113 9.42266C34.7349 9.10039 34.7349 8.5779 34.4113 8.25563L30.8962 4.75456C30.5726 4.4323 30.048 4.4323 29.7245 4.75456Z" fill="#EC5564"/>
<path d="M19.6281 35.1545C27.8633 35.1545 34.5393 28.5052 34.5393 20.3029C34.5393 12.1006 27.8633 5.45126 19.6281 5.45126C11.3928 5.45126 4.7168 12.1006 4.7168 20.3029C4.7168 28.5052 11.3928 35.1545 19.6281 35.1545Z" fill="#EC5564"/>
<path d="M19.6294 31.8531C26.0343 31.8531 31.2266 26.6817 31.2266 20.3023C31.2266 13.923 26.0343 8.75156 19.6294 8.75156C13.2245 8.75156 8.03223 13.923 8.03223 20.3023C8.03223 26.6817 13.2245 31.8531 19.6294 31.8531Z" fill="white"/>
<path d="M22.9429 0.5H16.3147C15.8571 0.5 15.4862 0.869459 15.4862 1.32521V2.97563C15.4862 3.43138 15.8571 3.80084 16.3147 3.80084H22.9429C23.4005 3.80084 23.7715 3.43138 23.7715 2.97563V1.32521C23.7715 0.869459 23.4005 0.5 22.9429 0.5Z" fill="#EC5564"/>
<path fill-rule="evenodd" clip-rule="evenodd" d="M24.2513 18.8114L16.1487 28.5255C16.0682 28.6251 15.9334 28.6771 15.792 28.6771C15.729 28.6771 15.6659 28.6663 15.6072 28.6425C15.4137 28.5688 15.3202 28.3956 15.3876 28.2353L18.6125 20.6373H15.3658C15.2223 20.6373 15.0918 20.581 15.0114 20.4878C14.9309 20.3947 14.9178 20.2777 14.9722 20.1738L19.2366 12.1339C19.3019 12.0083 19.4584 11.926 19.6302 11.926H23.6815C23.825 11.926 23.962 11.9845 24.0381 12.0798C24.1164 12.1751 24.1295 12.2942 24.0708 12.396L20.7153 18.2916H23.8946C24.0512 18.2916 24.1947 18.3587 24.2687 18.467C24.3426 18.5753 24.3361 18.7074 24.2491 18.8092L24.2513 18.8114Z" fill="#FCCA00"/>
<path d="M3.7338 15.6939H0.841572C0.365334 15.6939 0 15.2845 0 14.7495C0 14.2579 0.365334 13.8463 0.841572 13.8463H3.7338C4.21004 13.8463 4.57537 14.2557 4.57537 14.7907C4.57537 15.2823 4.21004 15.6939 3.7338 15.6939Z" fill="#F5BA42"/>
<path d="M3.39528 18.2393C2.91904 18.2393 2.55371 18.6486 2.55371 19.1424C2.55371 19.6363 2.91904 20.0456 3.39528 20.0456H6.28751C6.76375 20.0456 7.12908 19.6363 7.12908 19.1424C7.12908 18.6486 6.76375 18.2393 6.28751 18.2393H3.39528Z" fill="#F5BA42"/>
<path d="M0.885518 22.5862H3.77774C4.25398 22.5862 4.61932 22.9955 4.61932 23.5305C4.61932 24.0222 4.25398 24.4749 3.77774 24.4749H0.885518C0.409279 24.4749 0.0439453 24.0655 0.0439453 23.5305C0.0439453 23.0389 0.409279 22.5862 0.885518 22.5862Z" fill="#F5BA42"/>
<path opacity="0.49" d="M27.8337 12.1296C26.3158 10.6178 24.4805 9.62581 22.5451 9.12549C23.8912 9.68862 25.1546 10.5117 26.2528 11.6033C30.7847 16.117 30.7847 23.4335 26.2528 27.9472C23.2388 30.9492 18.9809 31.9433 15.1318 30.9513C19.3484 32.7166 24.4 31.8935 27.8337 28.4735C32.3656 23.9598 32.3656 16.6434 27.8337 12.1296Z" fill="#CECFD0"/>
<path opacity="0.3" d="M30.1714 9.7915C28.2207 7.84868 25.8613 6.5708 23.3692 5.92969C25.1002 6.65527 26.7268 7.71223 28.1359 9.11574C33.9617 14.9182 33.9617 24.3291 28.1359 30.1315C24.2608 33.9912 18.7851 35.2691 13.8379 33.9934C19.2614 36.2632 25.7547 35.2063 30.1714 30.8073C35.9971 25.0048 35.9971 15.594 30.1714 9.7915Z" fill="#D94453"/>
</g>
<defs>
<clipPath id="clip0_358_5786">
<rect width="35" height="35" fill="white" transform="translate(0 0.5)"/>
</clipPath>
</defs>
</svg>
