<svg xmlns="http://www.w3.org/2000/svg" width="88" height="12" viewBox="0 0 88 12" fill="none"><g clip-path="url(#clip0_2229_1021)"><path d="M85.891 11.8347C86.5885 11.8347 87.1539 11.2692 87.1539 10.5718C87.1539 9.87427 86.5885 9.30884 85.891 9.30884C85.1935 9.30884 84.6281 9.87427 84.6281 10.5718C84.6281 11.2692 85.1935 11.8347 85.891 11.8347Z" fill="#E13037"></path><path d="M0.944946 3.72905H3.14931V4.59242C3.66825 3.93111 4.46733 3.55453 5.30775 3.56831C6.31349 3.49943 7.2733 3.99082 7.80603 4.8496C8.38926 4.03674 9.33071 3.55913 10.3319 3.56831C12.3939 3.56831 13.4134 4.79908 13.4134 6.88863V11.8347H11.1585V7.18255C11.1585 6.09415 10.736 5.46498 9.74862 5.46498C8.90361 5.46498 8.28823 6.04822 8.28823 7.40758V11.8347H6.03794V7.18255C6.03794 6.09415 5.61544 5.46498 4.62348 5.46498C3.78306 5.46498 3.16768 6.04822 3.16768 7.40758V11.8347H0.944946V3.72905Z" fill="white"></path><path d="M14.3641 7.77956C14.3641 4.91389 16.472 3.56831 18.3044 3.56831C19.2091 3.53617 20.0816 3.8806 20.72 4.52354V3.72905H22.9381V11.8347H20.7154V10.9162C20.1 11.6188 19.1999 12.0092 18.2676 11.9862C16.0587 11.9357 14.3089 10.0987 14.3595 7.88978C14.3595 7.85304 14.3595 7.8163 14.3595 7.77956H14.3641ZM20.7934 7.77956C20.8348 6.62687 19.9347 5.65327 18.782 5.60735H18.7177C17.5099 5.54765 16.4858 6.47072 16.4215 7.67853C16.3618 8.88634 17.2848 9.91045 18.4926 9.97474C19.6959 10.0344 20.7246 9.11137 20.7889 7.90356C20.7889 7.85764 20.7889 7.81171 20.7889 7.76579L20.798 7.77956H20.7934Z" fill="white"></path><path d="M24.077 3.72905H25.4548V1.83697L27.6729 0.615385V3.72905H30.0104L29.1976 5.72216H27.6729V8.3031C27.6729 9.56602 27.8382 9.7589 29.1976 9.7589V11.8347H28.8761C26.2952 11.8347 25.4548 10.9621 25.4548 8.31688V5.72216H24.077V3.72905Z" fill="white"></path><path d="M29.845 7.77956C29.8313 5.46498 31.6958 3.58209 34.0104 3.56831H34.0379C35.7417 3.53157 37.294 4.5465 37.9461 6.12629L35.9667 6.9713C35.5213 5.89667 34.2859 5.38691 33.2113 5.83697C32.1367 6.28243 31.6269 7.51779 32.077 8.59242C32.527 9.66705 33.7578 10.1768 34.8324 9.72675C35.3468 9.5155 35.7555 9.10677 35.9667 8.59242L37.9461 9.43743C37.294 11.0172 35.7417 12.0321 34.0379 11.9954C31.7233 11.9954 29.8496 10.1263 29.845 7.81171C29.845 7.81171 29.845 7.81171 29.845 7.80712V7.77956Z" fill="white"></path><path d="M38.8049 0H41.0093V4.61998C41.5558 3.94489 42.3778 3.55913 43.2458 3.56831C45.1562 3.56831 46.3089 4.79908 46.3089 6.88863V11.8347H44.0541V7.19633C44.0541 6.09415 43.5535 5.46039 42.5661 5.46039C41.7211 5.46039 41.0231 6.04363 41.0231 7.40758V11.8347H38.8049V0Z" fill="white"></path><path d="M47.6132 3.72905H49.8175V5.05166C50.2171 4.18829 51.1034 3.65557 52.054 3.71986H52.8669L52.054 5.8783H51.5351C50.3502 5.8783 49.8313 6.49369 49.8313 8V11.8255H47.6132V3.72905Z" fill="white"></path><path d="M52.6832 7.77956C52.6924 5.46039 54.5799 3.58668 56.8991 3.59587C59.2182 3.60505 61.0919 5.49254 61.0828 7.81171C61.0736 10.1309 59.1861 12.0046 56.8669 11.9954C54.5569 11.9862 52.6878 10.1171 52.6832 7.81171V7.77956ZM58.9243 7.77956C58.9427 6.63605 58.0288 5.6946 56.8853 5.67623C55.7234 5.73134 54.8233 6.71871 54.8784 7.8806C54.9289 8.969 55.7969 9.83697 56.8853 9.88749C58.0288 9.86912 58.9427 8.92308 58.9289 7.77956H58.9243Z" fill="white"></path><path d="M61.8313 7.77956C61.8405 5.46039 63.728 3.58668 66.0471 3.59587C68.3663 3.60505 70.24 5.49254 70.2308 7.81171C70.2217 10.1309 68.3342 12.0046 66.015 11.9954C63.705 11.9862 61.8359 10.1171 61.8313 7.81171V7.77956ZM68.0724 7.77956C68.0862 6.63605 67.1723 5.6946 66.0288 5.67623C64.8669 5.73134 63.9668 6.71871 64.0219 7.8806C64.0724 8.969 64.9404 9.83697 66.0288 9.88749C67.1769 9.86912 68.0908 8.92767 68.0724 7.77956Z" fill="white"></path><path d="M71.0207 3.72905H73.2251V4.59242C73.744 3.93571 74.5431 3.55454 75.3835 3.57291C76.3893 3.49943 77.3537 3.99541 77.8818 4.85419C78.4605 4.04133 79.3973 3.56372 80.3939 3.56831C82.4559 3.56831 83.4754 4.79908 83.4754 6.88863V11.8347H81.2205V7.18255C81.2205 6.09415 80.798 5.46498 79.8106 5.46498C78.9702 5.46498 78.3502 6.04822 78.3502 7.40758V11.8347H76.1V7.18255C76.1 6.09415 75.6775 5.46498 74.6855 5.46498C73.8451 5.46498 73.2297 6.04822 73.2297 7.40758V11.8347H71.007L71.0207 3.72905Z" fill="white"></path></g><defs><clipPath id="clip0_2229_1021"><rect width="86.209" height="12" fill="white" transform="translate(0.944946)"></rect></clipPath></defs></svg>