<svg xmlns="http://www.w3.org/2000/svg" width="35" height="35" viewBox="0 0 35 35" fill="none">
<path d="M30.7554 13.5679C29.7933 14.2093 28.4952 14.7743 26.9452 14.7743C25.3952 14.7743 25.5479 14.6598 24.853 14.4307C21.333 13.2777 19.1492 9.33774 18.0421 6.68054C17.8588 6.72636 17.6755 6.74926 17.4847 6.74926C17.2938 6.74926 17.1029 6.72636 16.9196 6.68054C15.8125 9.33774 13.6287 13.2777 10.1086 14.4307C9.4138 14.6598 8.71132 14.7743 8.01648 14.7743C6.45881 14.7743 5.16838 14.2093 4.2063 13.5679C3.96959 13.797 3.69471 13.9726 3.38928 14.0947L5.70288 25.8307H29.2741L31.5877 14.0947C31.2822 13.9726 31.0074 13.797 30.7707 13.5679H30.7554Z" fill="#FECD55"/>
<path d="M17.4782 6.92474C18.4861 6.92474 19.3032 6.04665 19.3032 4.96239C19.3032 3.87813 18.4861 3.00003 17.4782 3.00003C16.4703 3.00003 15.6533 3.87813 15.6533 4.96239C15.6533 6.04665 16.4703 6.92474 17.4782 6.92474Z" fill="#F7941E"/>
<path d="M2.82492 14.3231C3.83282 14.3231 4.64983 13.445 4.64983 12.3607C4.64983 11.2764 3.83282 10.3983 2.82492 10.3983C1.81701 10.3983 1 11.2764 1 12.3607C1 13.445 1.81701 14.3231 2.82492 14.3231Z" fill="#F7941E"/>
<path d="M32.1756 10.4057C31.1677 10.4057 30.3507 11.2838 30.3507 12.3681C30.3507 13.4523 31.1677 14.3304 32.1756 14.3304C33.1835 14.3304 34.0005 13.4523 34.0005 12.3681C34.0005 11.2838 33.1835 10.4057 32.1756 10.4057Z" fill="#F7941E"/>
<path d="M29.2976 25.8531H5.67297C5.68824 26.2196 5.70352 26.8075 5.70352 27.4565C5.70352 28.1056 5.77987 28.3957 5.93259 28.663C6.09293 28.9379 6.32964 29.0677 6.68851 29.0677H28.2744C28.5417 29.0677 29.2594 29.0677 29.2594 27.4642C29.2594 26.8075 29.2747 26.2196 29.29 25.8607L29.2976 25.8531Z" fill="#FECD55"/>
<path d="M16.7449 23.3488H5.19983L5.68851 25.8304H29.2597L29.7484 23.3488H18.2109H16.7449Z" fill="#F7941E"/>
<path d="M21.9447 19.8694V19.822C21.9447 19.7556 21.9447 19.6987 21.9352 19.6323V19.6039V19.5944C21.9352 19.566 21.9352 19.5375 21.9257 19.5091V19.4806L21.9068 19.4048C21.7645 18.7599 21.3757 18.4091 21.2904 18.3522C20.5318 17.6789 19.024 17.2711 16.8051 17.1384H16.7387V15.5642H18.1137C18.2654 15.5642 18.4266 15.5737 18.5973 15.6022C18.7585 15.6306 18.9102 15.6685 19.0335 15.7349C19.1568 15.7918 19.2611 15.8772 19.337 15.9815C19.4128 16.0858 19.4507 16.2185 19.4507 16.3703C19.4507 16.522 19.4128 16.6642 19.3464 16.7685C19.3275 16.797 19.318 16.816 19.299 16.8444C19.2611 16.8918 19.1378 17.0151 18.8344 17.1479C19.3275 17.2332 20.0197 17.3849 20.6171 17.6504C20.6361 17.6504 20.6456 17.6315 20.6645 17.622C20.7783 17.5556 20.8542 17.4987 20.9301 17.4323C20.9964 17.3754 21.0249 17.3375 21.0249 17.3375C21.0438 17.3091 21.0723 17.2901 21.1007 17.2616C21.3947 16.9582 21.5464 16.5599 21.537 16.0953C21.537 15.6401 21.4326 15.2703 21.224 14.9953C21.0154 14.7203 20.7499 14.5022 20.418 14.3504C20.0956 14.1987 19.7257 14.0944 19.318 14.047C18.9197 13.9996 18.512 13.9711 18.1137 13.9711H14.662V17.1004C13.0214 17.1289 11.0964 17.2901 11.0964 17.2901C11.7792 17.2901 14.662 17.4798 14.662 17.4798H14.6809V22.2211H18.512C18.9197 22.2211 19.337 22.1832 19.7447 22.1073C20.1525 22.0315 20.5318 21.8987 20.8542 21.728C21.1766 21.5479 21.4516 21.3108 21.6602 21.0263C21.8594 20.7418 21.9637 20.391 21.9732 19.9642V19.9263C21.9732 19.9168 21.9732 19.8979 21.9732 19.8789L21.9447 19.8694ZM19.7732 20.078V20.097C19.7637 20.097 19.7542 20.116 19.7542 20.116C19.6688 20.2392 19.5645 20.3341 19.4413 20.4099C19.318 20.4858 19.1663 20.5427 19.0051 20.5711C18.8438 20.5996 18.6826 20.6185 18.5214 20.6185H16.7482C16.7482 20.6091 16.7482 20.4384 16.7482 20.4384C16.7482 19.8979 16.7576 18.6461 16.7671 18.3901C16.7671 18.2953 16.7671 18.2099 16.7482 18.1341V18.1056L16.7292 18.0487C16.7007 17.9634 16.6628 17.9254 16.6533 17.9065C16.6533 17.9065 16.6438 17.897 16.6344 17.8875L16.5206 17.7548L17.374 17.9539C18.749 18.3142 19.3464 18.741 19.6214 19.0349C20.0102 19.5375 19.8395 19.9548 19.7826 20.0685L19.7732 20.078Z" fill="#EE3536"/>
</svg>